<svg xmlns="http://www.w3.org/2000/svg" xmlns:xlink="http://www.w3.org/1999/xlink" width="1200px" height="1200px" viewBox="0 0 1200 1200">
  <g id="813fbb11-7087-4098-a285-a1ee408fc2d4">
<rect style="stroke: rgb(193,193,193); stroke-width: 0; stroke-dasharray: none; stroke-linecap: butt; stroke-dashoffset: 0; stroke-linejoin: miter; stroke-miterlimit: 4; fill: rgb(37,44,50); fill-rule: nonzero; opacity: 0;" x="-600" y="-600" rx="0" ry="0" width="1200" height="1200" transform="matrix(1 0 0 1 600 600)"/>
</g>
<g id="YbhfwbcsTj8z7TwullPdv">
<path style="stroke: rgb(114,114,114); stroke-width: 0; stroke-dasharray: none; stroke-linecap: butt; stroke-dashoffset: 0; stroke-linejoin: round; stroke-miterlimit: 4; fill: rgb(114,114,114); fill-rule: nonzero; opacity: 1;" vector-effect="non-scaling-stroke" transform="matrix(1 0 0 1 0 0)  translate(0, 0)" d="" stroke-linecap="round"/>
</g>
<g id="YUsR1C2oBzTXJmKhdfhC-">
<g>
		<g id="uys67snYNuDqTEPpEraJO">
<path style="stroke: rgb(173,224,69); stroke-width: 0; stroke-dasharray: none; stroke-linecap: butt; stroke-dashoffset: 0; stroke-linejoin: miter; stroke-miterlimit: 4; fill: rgb(241,248,255); fill-rule: nonzero; opacity: 1;" d="M146.475,649.92871c0,-11.64 11.06,-26.19 36.37,-40.16c27.36,-14.84 77.41,-27.35 114.95,-27.35c2.33,0 3.2,0.29 3.2,1.45c0,0.59 -0.87,1.46 -2.33,1.75c-27.93,2.33 -79.44,16.3 -107.38,32.3c-24.15,13.68 -33.75,26.19 -33.75,35.21c0,9.31 9.89,14.84 25.31,14.84c13.39,0 30.56,-4.07 48.6,-13.97c55.58,-29.97 110.87,-120.18 110.87,-162.66c0,-7.57 -2.04,-13.68 -5.82,-17.46c-25.02,30.55 -70.42,79.15 -91.08,94.57c-6.4,4.66 -14.84,9.6 -22.12,9.6c-12.8,0 -24.44,-12.8 -23.28,-24.44c2.62,-24.73 33.47,-64.6 49.76,-86.14c19.21,-25.02 41.91,-52.96 41.91,-61.4c0,-1.74 -0.88,-2.32 -3.2,-2.32c-17.17,0 -49.18,17.46 -73.34,32.88c-14.84,9.89 -56.45,45.98 -56.45,68.09c0,3.49 0.87,6.4 3.2,9.02c0.58,0.59 0.87,1.46 0.87,1.75c0,0.87 -0.58,1.45 -1.45,1.45c-4.37,0 -12.51,-17.16 -11.93,-24.73c2.33,-20.66 23.28,-42.78 51.51,-61.4c11.93,-7.86 65.18,-36.38 81.18,-36.38c9.9,0 38.13,7.57 36.09,19.21c-4.95,34.05 -93.99,81.48 -100.98,145.21c0,1.16 -0.29,2.33 -0.29,3.49c0,6.4 2.33,8.73 6.11,8.73c6.69,0 17.46,-8.44 23.28,-13.09c16.59,-13.68 30.85,-29.98 45.98,-45.11c13.68,-13.39 27.94,-27.06 41.32,-41.32c-2.91,-1.46 -6.11,-2.33 -10.47,-2.33c-2.91,0 -4.37,-0.58 -4.37,-1.45c0,-1.46 3.49,-3.21 8.44,-3.21c2.62,0 7.27,0.59 10.48,2.33c3.49,-3.78 7.27,-7.56 10.47,-11.64c1.17,-1.16 3.78,-1.74 2.91,-0.29c-2.33,3.49 -5.82,8.44 -10.47,13.97c0.58,0.29 0.87,0.58 1.16,0.87c11.35,11.93 16.3,26.19 16.3,42.2c0,57.32 -65.19,131.24 -121.06,151.32c-19.21,6.98 -36.08,9.89 -50.05,9.89c-25.32,0 -40.45,-9.6 -40.45,-23.28zM363.555,560.00871c0,-26.48 37.83,-63.44 62.57,-63.44c4.07,0 9.31,3.5 13.39,9.03c0.87,1.16 2.03,3.2 2.03,5.23c0,1.46 -0.58,2.91 -2.03,3.5c-0.59,0.29 -0.59,-4.08 -7.57,-4.08c-13.1,0 -48.31,28.52 -56.45,50.05c-0.88,2.91 -1.75,5.53 -1.75,7.57c0,1.75 0.58,2.62 1.75,2.62c1.16,0 2.61,-0.58 4.65,-2.04c16.01,-11.64 38.7,-37.83 41.91,-48.6c0.58,-2.03 2.03,-2.32 6.69,-2.32c6.4,0 12.51,3.49 10.18,6.98c-6.98,10.48 -14.55,22.12 -17.46,33.76c-0.29,1.45 -0.58,2.62 -0.58,3.49c0,2.33 1.17,2.91 2.33,2.91c1.75,0 4.07,-1.17 5.82,-2.62c8.15,-7.86 17.46,-20.95 27.06,-33.17c1.75,-2.04 2.91,-2.91 3.49,-2.91c0.59,0 0.88,0.58 0.88,1.45c0,0.87 -0.29,1.75 -0.58,2.33c-1.75,3.78 -4.66,8.15 -6.99,11.35c-3.78,5.53 -20.37,32.59 -32.01,32.59c-8.15,0 -13.38,-6.69 -13.38,-11.06c0,-2.91 0,-4.07 0.29,-5.53c0.58,-3.78 2.62,-9.89 4.36,-14.84c-6.11,8.73 -27.64,34.92 -34.92,34.92c-9.6,0 -13.68,-11.35 -13.68,-17.17zM481.125,561.75871c0,-13.97 8.44,-29.68 11.93,-35.79c4.07,-7.57 5.53,-11.94 4.07,-11.94c-2.91,0 -12.8,10.48 -26.48,28.23c-12.22,15.72 -14.55,23.28 -15.71,28.81c-0.29,1.75 -2.04,2.62 -4.37,2.62c-4.36,0 -9.6,-3.78 -9.6,-10.48c0,-3.78 16.59,-38.41 21.24,-48.3c-2.03,-1.17 -2.62,-3.2 -1.45,-5.24l8.44,-15.42c1.16,-0.88 8.73,-3.79 13.67,-3.79c2.91,0 5.24,0.88 5.24,3.5c0,1.16 -0.87,3.2 -2.33,5.82c-2.32,4.07 -19.78,35.21 -23.28,43.94c0,0.29 -0.29,0.58 -0.29,0.87c0,1.75 3.79,-4.66 5.53,-6.69c11.64,-16.01 24.16,-29.1 38.12,-42.2c3.79,2.62 16.88,0 16.88,7.57c0,7.85 -7.86,18.04 -15.42,27.93c-7.57,9.9 -15.42,25.32 -15.42,34.63c0,3.49 1.16,5.82 3.78,5.82c1.16,0 2.62,-0.58 4.65,-1.74c2.91,-1.75 13.1,-9.9 23.28,-24.16c1.75,-2.62 3.5,-3.49 4.66,-3.49c1.46,0 2.04,1.75 1.16,3.49c-13.38,20.96 -25.02,31.72 -33.46,31.72c-8.44,0 -14.84,-4.65 -14.84,-15.71zM539.325,471.54871c0,-2.91 13.97,-11.35 13.97,-21.54c0,-8.43 -8.73,-7.27 -8.73,-13.09c0,-6.4 2.91,-9.6 9.02,-9.6c5.82,0 13.38,4.36 13.38,10.47c0,12.52 -7.56,24.45 -17.75,31.43c-2.03,1.46 -5.24,3.49 -8.15,3.49c-0.58,0 -1.74,-0.29 -1.74,-1.16zM558.825,560.00871c0,-1.74 0.29,-3.49 0.87,-5.53c1.45,-5.23 5.53,-7.27 5.24,-4.65c-0.88,4.07 2.03,7.27 5.82,9.02c2.03,0.87 3.78,1.45 5.82,1.45c7.85,0 15.42,-7.27 15.42,-14.26c0,-2.03 -0.58,-4.07 -2.04,-5.82c-4.65,-6.4 -11.35,-8.73 -14.26,-15.71l-0.29,0.58c-3.2,6.4 -7.27,11.35 -10.18,16.01c-5.82,8.15 -10.19,14.55 -18.34,23.86c-1.45,1.75 -2.61,2.33 -3.78,2.33c-1.16,0 -1.74,-0.88 -1.74,-2.04c0,-0.87 0.29,-1.45 0.87,-2.33c8.73,-10.76 13.68,-17.17 21.24,-28.22c3.78,-5.53 8.44,-12.52 10.48,-18.92c-0.58,-18.62 22.99,-30.55 39.28,-29.39c4.08,0.29 9.02,12.51 9.9,13.68v0.58c0,1.16 -1.17,2.33 -2.91,0.87c-0.88,-0.29 -1.75,-0.29 -2.91,-0.29c-11.35,0 -36.96,9.6 -35.51,20.08c1.17,7.57 9.03,7.86 17.76,17.75c3.78,4.37 5.52,9.02 5.52,13.1c0,7.85 -5.82,14.55 -12.8,18.33c-4.07,2.33 -9.31,3.49 -14.55,3.49c-9.6,0 -18.91,-4.36 -18.91,-13.97zM908.605,454.37871c0,-0.87 0.58,-1.75 2.03,-2.91c8.44,-5.24 17.76,-15.13 17.76,-26.19c0,-17.46 -31.72,-19.21 -44.24,-19.21c-68.09,0 -134.44,37.54 -196.13,42.78c-17.17,1.46 -23.28,-14.26 -23.28,-27.94c0,-14.84 46.27,-34.33 69.55,-37.53c2.62,-0.3 5.53,-0.59 7.86,-0.59c4.36,0 7.85,0.59 8.73,2.91c-18.92,6.41 -33.47,11.35 -48.31,17.17c-18.92,7.57 -26.48,13.39 -26.48,17.17c0,5.24 14.55,6.99 33.17,6.11c20.08,-1.16 46.85,-7.56 56.75,-9.89c22.99,-5.24 82.64,-23.28 124.55,-23.28c6.4,0 12.22,0.29 17.46,1.16c9.89,1.75 28.8,3.79 26.48,21.25c4.36,8.73 6.69,11.64 6.69,16c0,1.16 0,2.33 -0.29,3.49c-1.75,9.31 -10.48,10.77 -18.92,14.55c-3.49,1.46 -6.69,5.53 -12.22,6.7c-0.58,0.29 -1.16,-0.59 -1.16,-1.75zM752.045,569.31871c0,-36.66 60.24,-112.32 83.81,-134.73c-1.17,-1.16 -1.75,-2.62 -1.75,-4.07c0,-6.99 14.55,-14.84 19.79,-19.21c5.24,0.29 19.21,4.08 19.21,10.77c0,1.16 -0.3,2.33 -0.59,3.49c-2.62,6.69 -21.24,20.66 -27.35,26.77c-25.03,25.61 -82.64,85.27 -82.64,123.09c0,7.28 1.45,13.39 9.89,13.39v2.33c-1.16,0.58 -2.33,0.87 -3.78,0.87c-9.9,0 -16.59,-14.26 -16.59,-22.7zM859.715,476.49871c0.87,-4.37 2.33,-4.66 8.73,-5.53c10.48,-1.17 7.27,-0.88 18.04,-2.91c1.46,-0.29 4.95,-3.5 4.08,0c0,1.45 -3.21,4.07 -5.24,4.94c-4.37,2.04 -10.48,4.37 -13.1,9.02c-0.58,1.17 -0.87,2.04 -0.87,3.21c0,2.32 1.45,4.36 2.91,4.65c0.58,0 0.58,0.58 0.58,0.87c0,0.88 -0.87,2.33 -1.74,2.04c-7.57,-1.45 -14.85,-8.44 -13.39,-16.29zM817.815,555.64871c0,-8.73 2.03,-17.46 4.94,-22.7c-1.74,-0.87 -2.33,-2.33 -1.45,-3.49c6.98,-9.02 18.62,-26.77 24.73,-28.81c0.88,-0.29 1.46,-0.29 2.33,-0.29c6.11,0 12.22,6.11 13.68,7.27c-13.97,13.97 -29.98,34.92 -29.98,55.87c0,5.24 2.33,6.99 4.95,6.99c2.91,0 6.4,-1.75 9.02,-4.08c6.99,-6.11 18.92,-19.78 27.94,-32.01c2.91,-4.07 4.95,-5.82 5.53,-5.82c1.74,0 -0.29,6.12 -4.37,12.52c-5.53,7.56 -13.67,20.66 -22.4,29.39c-4.95,4.94 -11.06,7.56 -15.72,7.56c-14.55,0 -19.2,-10.47 -19.2,-22.4zM873.975,556.51871c0,-50.63 76.24,-168.49 100.1,-165.87c10.19,1.16 10.77,10.77 17.75,13.97c0,9.6 -10.47,24.44 -23.57,40.16c-16.29,19.78 -65.47,76.24 -69.55,89.04c-0.29,1.46 -0.87,2.04 -1.45,2.04c-0.87,0 -1.46,-1.16 -1.17,-2.91c1.75,-12.22 54.42,-77.12 61.41,-85.85c5.82,-6.98 11.34,-13.96 15.71,-20.07c5.24,-7.28 7.57,-12.52 7.57,-15.14c0,-3.49 -5.24,-0.58 -15.43,11.35c-24.15,28.52 -77.11,96.03 -77.11,136.19c0,9.6 3.49,13.1 8.15,13.1c4.65,0 10.47,-3.21 16.58,-9.9c7.57,-7.86 17.17,-21.24 21.83,-29.39c4.65,-7.86 7.56,-11.35 8.73,-11.35c0.29,0 0.58,0.29 0.58,0.87c0,0.59 -0.29,1.17 -0.58,2.33c-4.08,13.97 -14.84,29.1 -25.32,41.03c-7.86,9.31 -16.88,12.81 -24.73,12.81c-13.97,0 -19.5,-8.73 -19.5,-22.41zM928.095,558.55871c-0.29,-1.17 -0.29,-2.33 -0.29,-3.79c0,-23.28 29.39,-59.94 50.35,-59.65c2.32,2.62 8.44,3.49 13.09,4.66c5.53,1.45 7.86,5.23 7.86,9.6c0,5.24 -3.78,11.64 -9.31,16.29c-13.39,10.77 -36.67,20.37 -40.45,29.69c-0.58,1.16 -1.17,1.45 -1.75,1.45c-0.87,0 -1.74,-0.87 -1.16,-2.33c5.82,-17.17 28.22,-25.6 38.41,-37.83c2.62,-2.91 3.78,-5.53 3.78,-7.56c0,-2.33 -1.45,-3.79 -4.07,-3.79c-2.04,0 -4.66,0.88 -7.57,2.91c-15.71,10.48 -30.84,29.1 -35.5,47.44c-0.58,2.33 -0.87,4.36 -0.87,6.4c0,7.27 4.36,9.89 9.89,9.89c4.66,0 9.9,-1.74 13.97,-4.07c5.82,-3.49 12.22,-9.89 16,-14.55c4.66,-5.82 7.86,-8.44 9.32,-8.44c2.03,0 -0.29,5.82 -8.15,15.42c-7.57,9.32 -17.75,17.46 -31.14,17.46c-9.31,0 -20.08,-4.94 -22.41,-19.2zM989.205,560.00871c0,-1.74 0.3,-3.49 0.88,-5.53c1.45,-5.23 5.53,-7.27 5.24,-4.65c-0.88,4.07 2.03,7.27 5.82,9.02c2.03,0.87 3.78,1.45 5.82,1.45c7.85,0 15.42,-7.27 15.42,-14.26c0,-2.03 -0.58,-4.07 -2.04,-5.82c-4.65,-6.4 -11.35,-8.73 -14.26,-15.71l-0.29,0.58c-3.2,6.4 -7.27,11.35 -10.18,16.01c-5.82,8.15 -10.19,14.55 -18.34,23.86c-1.45,1.75 -2.62,2.33 -3.78,2.33c-1.16,0 -1.75,-0.88 -1.75,-2.04c0,-0.87 0.3,-1.45 0.88,-2.33c8.73,-10.76 13.67,-17.17 21.24,-28.22c3.78,-5.53 8.44,-12.52 10.48,-18.92c-0.59,-18.62 22.99,-30.55 39.28,-29.39c4.08,0.29 9.02,12.51 9.9,13.68v0.58c0,1.16 -1.17,2.33 -2.91,0.87c-0.88,-0.29 -1.75,-0.29 -2.91,-0.29c-11.35,0 -36.96,9.6 -35.51,20.08c1.17,7.57 9.02,7.86 17.75,17.75c3.79,4.37 5.53,9.02 5.53,13.1c0,7.85 -5.82,14.55 -12.8,18.33c-4.07,2.33 -9.31,3.49 -14.55,3.49c-9.6,0 -18.92,-4.36 -18.92,-13.97z" stroke-linecap="round"/>
</g>
</g>
</g>
<g id="QVQxx0a_QEBvxj-qU_fzJ">
<path style="stroke: rgb(193,193,193); stroke-width: 0; stroke-dasharray: none; stroke-linecap: butt; stroke-dashoffset: 0; stroke-linejoin: miter; stroke-miterlimit: 4; fill: rgb(114,114,114); fill-rule: nonzero; opacity: 1;" transform="matrix(1 0 0 1 0 0)  translate(0, 0)" d="" stroke-linecap="round"/>
</g>
<g id="Smin59dEW3unV-rk7GQPL">
<path style="stroke: rgb(193,193,193); stroke-width: 0; stroke-dasharray: none; stroke-linecap: butt; stroke-dashoffset: 0; stroke-linejoin: miter; stroke-miterlimit: 4; fill: rgb(173,224,69); fill-rule: nonzero; opacity: 1;" transform="matrix(1 0 0 1 0 0)  translate(0, 0)" d="" stroke-linecap="round"/>
</g>
<g id="jUWFGcqTRwgslMSBcmAF-">
<path style="stroke: rgb(114,114,114); stroke-width: 0; stroke-dasharray: none; stroke-linecap: butt; stroke-dashoffset: 0; stroke-linejoin: round; stroke-miterlimit: 4; fill: rgb(114,114,114); fill-rule: nonzero; opacity: 1; visibility: hidden;" vector-effect="non-scaling-stroke" transform="matrix(1 0 0 1 0 0)  translate(0, 0)" d="" stroke-linecap="round"/>
</g>
<g id="JjYYTQiqJA0EY09U7YuiH">
<g style=" visibility: hidden;">
		<g id="Nrxuysn1WknpEikhdDeF2">
<path style="stroke: rgb(193,193,193); stroke-width: 0; stroke-dasharray: none; stroke-linecap: butt; stroke-dashoffset: 0; stroke-linejoin: miter; stroke-miterlimit: 4; fill: rgb(207,210,215); fill-rule: nonzero; opacity: 1;" d="M318.96,756.81909v24.9h14.19v3.11h-17.47v-28.01zM347.01,776.25908l-3.27,8.57h-3.45l11.13,-28.01h3.32l11.05,28.01h-3.53l-3.28,-8.57zM357.81,773.23909l-4.79,-12.69l-4.83,12.69zM381.87,784.82909h-3.27v-12.77l-10.46,-15.24h3.95l8.1,12.13l8.15,-12.13h3.91l-10.38,15.28zM404.76,756.81909v28.01h-3.27v-28.01zM439.41,784.82909h-3.53l-16.5,-23.06v23.06h-3.24v-28.01h3.62l16.42,23.01v-23.01h3.23zM472.51,783.01909c-3,1.49 -6.29,2.23 -9.87,2.23c-4.31,0 -7.56,-1.21 -9.75,-3.63c-2.18,-2.43 -3.27,-6.03 -3.27,-10.82c0,-4.73 1.16,-8.31 3.48,-10.73c2.33,-2.42 5.66,-3.63 10,-3.63c2.77,0 5.77,0.69 8.99,2.06l-1.22,2.85c-1.23,-0.61 -2.53,-1.08 -3.88,-1.4c-1.36,-0.33 -2.66,-0.49 -3.89,-0.49c-6.81,0 -10.21,3.78 -10.21,11.34c0,3.92 0.81,6.8 2.44,8.63c1.63,1.83 4.17,2.75 7.64,2.75c2.13,0 4.21,-0.32 6.22,-0.96v-7.77h-6.59v-3.11h9.91zM518.96,756.81909v3.02h-14.49v9.41h12.77v3.11h-12.77v9.45h14.49v3.02h-17.77v-28.01zM533.32,756.81909v24.9h14.2v3.11h-17.47v-28.01zM574.9,756.81909v3.02h-14.49v9.41h12.77v3.11h-12.77v9.45h14.49v3.02h-17.76v-28.01zM607.71,783.01909c-3,1.49 -6.29,2.23 -9.87,2.23c-4.31,0 -7.56,-1.21 -9.75,-3.63c-2.18,-2.43 -3.27,-6.03 -3.27,-10.82c0,-4.73 1.16,-8.31 3.48,-10.73c2.33,-2.42 5.66,-3.63 10,-3.63c2.77,0 5.77,0.69 8.99,2.06l-1.22,2.85c-1.23,-0.61 -2.53,-1.08 -3.89,-1.4c-1.35,-0.33 -2.65,-0.49 -3.88,-0.49c-6.81,0 -10.21,3.78 -10.21,11.34c0,3.92 0.81,6.8 2.44,8.63c1.62,1.83 4.17,2.75 7.64,2.75c2.13,0 4.2,-0.32 6.22,-0.96v-7.77h-6.6v-3.11h9.92zM623.29,776.25908l-3.28,8.57h-3.44l11.13,-28.01h3.32l11.04,28.01h-3.53l-3.27,-8.57zM634.08,773.23909l-4.79,-12.69l-4.83,12.69zM674.23,784.82909h-3.52l-16.51,-23.06v23.06h-3.23v-28.01h3.61l16.42,23.01v-23.01h3.23zM706.24,783.10909c-3.19,1.37 -6.19,2.06 -8.99,2.06c-4.31,0 -7.56,-1.21 -9.74,-3.62c-2.19,-2.41 -3.28,-5.99 -3.28,-10.75c0,-4.76 1.09,-8.34 3.26,-10.75c2.17,-2.41 5.41,-3.61 9.72,-3.61c2.8,0 5.8,0.69 8.99,2.06l-1.18,2.85c-1.23,-0.61 -2.53,-1.08 -3.88,-1.4c-1.36,-0.33 -2.67,-0.49 -3.93,-0.49c-3.28,0 -5.7,0.91 -7.25,2.73c-1.55,1.82 -2.33,4.69 -2.33,8.61c0,3.95 0.78,6.82 2.33,8.63c1.55,1.81 3.98,2.71 7.29,2.71c1.26,0 2.57,-0.16 3.93,-0.48c1.35,-0.32 2.65,-0.79 3.88,-1.41zM733.75,756.81909v3.02h-14.49v9.41h12.77v3.11h-12.77v9.45h14.49v3.02h-17.77v-28.01zM765.46,756.81909v12.51h14.61v-12.51h3.28v28.01h-3.28v-12.47h-14.61v12.47h-3.28v-28.01zM806.2,785.24908c-4.17,0 -7.32,-1.21 -9.45,-3.63c-2.13,-2.43 -3.19,-6.02 -3.19,-10.78c0,-4.76 1.06,-8.35 3.19,-10.77c2.13,-2.42 5.28,-3.63 9.45,-3.63c4.17,0 7.32,1.21 9.45,3.63c2.13,2.42 3.19,6.01 3.19,10.77c0,4.76 -1.06,8.35 -3.19,10.78c-2.13,2.42 -5.28,3.63 -9.45,3.63zM806.2,782.22909c3.22,0 5.57,-0.91 7.05,-2.73c1.49,-1.82 2.23,-4.71 2.23,-8.66c0,-3.95 -0.74,-6.83 -2.23,-8.65c-1.48,-1.82 -3.83,-2.73 -7.05,-2.73c-3.22,0 -5.57,0.92 -7.06,2.75c-1.48,1.83 -2.22,4.71 -2.22,8.63c0,3.95 0.74,6.84 2.22,8.66c1.49,1.82 3.84,2.73 7.06,2.73zM855.17,784.82909h-3.28v-22.81l-9.28,13.28h-1.55l-8.7,-13.19v22.72h-3.27v-28.01h3.53l9.36,14.32l9.66,-14.32h3.53zM884.32,756.81909v3.02h-14.49v9.41h12.77v3.11h-12.77v9.45h14.49v3.02h-17.77v-28.01z" stroke-linecap="round"/>
</g>
</g>
</g>
<g id="QjDlOypT9EPrr8up3TiYg">
<path style="stroke: rgb(193,193,193); stroke-width: 0; stroke-dasharray: none; stroke-linecap: butt; stroke-dashoffset: 0; stroke-linejoin: miter; stroke-miterlimit: 4; fill: rgb(114,114,114); fill-rule: nonzero; opacity: 1; visibility: hidden;" transform="matrix(1 0 0 1 0 0)  translate(0, 0)" d="" stroke-linecap="round"/>
</g>
<g id="mdT6K_hPTjk1yEtHNw_cA">
<path style="stroke: rgb(193,193,193); stroke-width: 0; stroke-dasharray: none; stroke-linecap: butt; stroke-dashoffset: 0; stroke-linejoin: miter; stroke-miterlimit: 4; fill: rgb(193,193,193); fill-rule: nonzero; opacity: 1; visibility: hidden;" transform="matrix(1 0 0 1 0 0)  translate(0, 0)" d="" stroke-linecap="round"/>
</g>
<g id="f5hzsbgmwQwVws_0PvPUr">
<path style="stroke: rgb(114,114,114); stroke-width: 0; stroke-dasharray: none; stroke-linecap: butt; stroke-dashoffset: 0; stroke-linejoin: round; stroke-miterlimit: 4; fill: rgb(114,114,114); fill-rule: nonzero; opacity: 1; visibility: hidden;" vector-effect="non-scaling-stroke" transform="matrix(1 0 0 1 0 0)  translate(0, 0)" d="" stroke-linecap="round"/>
</g>
<g id="AcaB_5j-tmW2nHGeLRQRr">
<g style=" visibility: hidden;">
		<g id="y-Ow_GyLPzALUiucc1_k1">
<path style="stroke: rgb(193,193,193); stroke-width: 0; stroke-dasharray: none; stroke-linecap: butt; stroke-dashoffset: 0; stroke-linejoin: miter; stroke-miterlimit: 4; fill: rgb(207,210,215); fill-rule: nonzero; opacity: 1;" d="M506.82,825.9452v17.79h10.14v2.22h-12.48v-20.01zM528.66,839.8352l-2.34,6.12h-2.46l7.95,-20.01h2.37l7.89,20.01h-2.52l-2.34,-6.12zM536.37,837.6752l-3.42,-9.06l-3.45,9.06zM556.8,834.6452c1.28,0.42 2.33,0.84 3.16,1.26c0.83,0.42 1.54,1.01 2.12,1.76c0.58,0.75 0.87,1.7 0.87,2.86c0,1.68 -0.61,3.06 -1.82,4.13c-1.21,1.07 -2.94,1.6 -5.2,1.6c-1.02,0 -2.09,-0.13 -3.2,-0.4c-1.11,-0.27 -2.18,-0.63 -3.22,-1.07l0.87,-2.07c0.88,0.44 1.81,0.78 2.79,1.02c0.98,0.24 1.9,0.36 2.76,0.36c1.46,0 2.6,-0.29 3.42,-0.87c0.82,-0.58 1.23,-1.39 1.23,-2.43c0,-0.7 -0.2,-1.28 -0.59,-1.75c-0.39,-0.47 -0.9,-0.86 -1.54,-1.17c-0.64,-0.31 -1.58,-0.71 -2.82,-1.19c-1.32,-0.46 -2.37,-0.88 -3.14,-1.27c-0.77,-0.39 -1.42,-0.95 -1.95,-1.68c-0.53,-0.73 -0.79,-1.7 -0.79,-2.9c0,-0.92 0.28,-1.78 0.85,-2.58c0.57,-0.8 1.38,-1.44 2.43,-1.92c1.05,-0.48 2.26,-0.72 3.62,-0.72c1.02,0 2.08,0.14 3.19,0.41c1.11,0.27 2.19,0.62 3.23,1.06l-0.87,2.04c-0.88,-0.44 -1.81,-0.77 -2.78,-1c-0.97,-0.23 -1.89,-0.35 -2.77,-0.35c-1.3,0 -2.38,0.27 -3.24,0.81c-0.86,0.54 -1.29,1.23 -1.29,2.07c0,0.72 0.18,1.32 0.54,1.79c0.36,0.47 0.85,0.85 1.48,1.15c0.63,0.3 1.52,0.65 2.66,1.05zM594.42,845.9552h-2.34l-7.65,-20.01h2.49l6.42,16.98l6.3,-16.92l2.46,-0.06zM622.95,825.9452v2.16h-10.35v6.72h9.12v2.22h-9.12v6.75h10.35v2.16h-12.69v-20.01zM648.18,844.6652c-2.14,1.06 -4.49,1.59 -7.05,1.59c-3.08,0 -5.4,-0.86 -6.96,-2.59c-1.56,-1.73 -2.34,-4.31 -2.34,-7.73c0,-3.38 0.83,-5.93 2.49,-7.66c1.66,-1.73 4.04,-2.6 7.14,-2.6c1.98,0 4.12,0.49 6.42,1.47l-0.87,2.04c-0.88,-0.44 -1.81,-0.77 -2.78,-1c-0.97,-0.23 -1.89,-0.35 -2.77,-0.35c-4.86,0 -7.29,2.7 -7.29,8.1c0,2.8 0.58,4.86 1.74,6.17c1.16,1.31 2.98,1.96 5.46,1.96c1.52,0 3,-0.23 4.44,-0.69v-5.55h-4.71v-2.22h7.08zM661.11,839.8352l-2.34,6.12h-2.46l7.95,-20.01h2.37l7.89,20.01h-2.52l-2.34,-6.12zM668.82,837.6752l-3.42,-9.06l-3.45,9.06zM689.25,834.6452c1.28,0.42 2.33,0.84 3.16,1.26c0.83,0.42 1.54,1.01 2.12,1.76c0.58,0.75 0.87,1.7 0.87,2.86c0,1.68 -0.61,3.06 -1.82,4.13c-1.21,1.07 -2.94,1.6 -5.2,1.6c-1.02,0 -2.09,-0.13 -3.2,-0.4c-1.11,-0.27 -2.18,-0.63 -3.22,-1.07l0.87,-2.07c0.88,0.44 1.81,0.78 2.79,1.02c0.98,0.24 1.9,0.36 2.76,0.36c1.46,0 2.6,-0.29 3.42,-0.87c0.82,-0.58 1.23,-1.39 1.23,-2.43c0,-0.7 -0.2,-1.28 -0.59,-1.75c-0.39,-0.47 -0.9,-0.86 -1.54,-1.17c-0.64,-0.31 -1.58,-0.71 -2.82,-1.19c-1.32,-0.46 -2.37,-0.88 -3.14,-1.27c-0.77,-0.39 -1.42,-0.95 -1.95,-1.68c-0.53,-0.73 -0.79,-1.7 -0.79,-2.9c0,-0.92 0.28,-1.78 0.85,-2.58c0.57,-0.8 1.38,-1.44 2.43,-1.92c1.05,-0.48 2.26,-0.72 3.62,-0.72c1.02,0 2.08,0.14 3.19,0.41c1.11,0.27 2.19,0.62 3.23,1.06l-0.87,2.04c-0.88,-0.44 -1.81,-0.77 -2.78,-1c-0.97,-0.23 -1.89,-0.35 -2.77,-0.35c-1.3,0 -2.38,0.27 -3.24,0.81c-0.86,0.54 -1.29,1.23 -1.29,2.07c0,0.72 0.18,1.32 0.54,1.79c0.36,0.47 0.85,0.85 1.48,1.15c0.63,0.3 1.52,0.65 2.66,1.05z" stroke-linecap="round"/>
</g>
</g>
</g>
<g id="5yziy0iCB6DwvK7VGLiDr">
<path style="stroke: rgb(193,193,193); stroke-width: 0; stroke-dasharray: none; stroke-linecap: butt; stroke-dashoffset: 0; stroke-linejoin: miter; stroke-miterlimit: 4; fill: rgb(114,114,114); fill-rule: nonzero; opacity: 1; visibility: hidden;" transform="matrix(1 0 0 1 0 0)  translate(0, 0)" d="" stroke-linecap="round"/>
</g>
<g id="PrZCbQj7-ODunfhJiq2iC">
<path style="stroke: rgb(193,193,193); stroke-width: 0; stroke-dasharray: none; stroke-linecap: butt; stroke-dashoffset: 0; stroke-linejoin: miter; stroke-miterlimit: 4; fill: rgb(193,193,193); fill-rule: nonzero; opacity: 1; visibility: hidden;" transform="matrix(1 0 0 1 0 0)  translate(0, 0)" d="" stroke-linecap="round"/>
</g>
<g id="ETtC0vxAuLYMzpdeLUxDe">
<g style=" visibility: hidden;">
		<g id="Layer_1-2">
<path style="stroke: rgb(193,193,193); stroke-width: 0; stroke-dasharray: none; stroke-linecap: butt; stroke-dashoffset: 0; stroke-linejoin: miter; stroke-miterlimit: 4; fill: rgb(207,210,215); fill-rule: nonzero; opacity: 1;" d="M490.59821,707.69473v-4.44067h218.80351v4.44067z" stroke-linecap="round"/>
</g>
</g>
</g>

  </svg>