<svg xmlns="http://www.w3.org/2000/svg" xmlns:xlink="http://www.w3.org/1999/xlink" width="1200px" height="1200px" viewBox="0 0 1200 1200">
  <g id="RClU-SEzfDJ3eQ9s4minE">
<g style="opacity: 0.98;">
		<g id="Layer_1-2">
<path style="stroke: rgb(193,193,193); stroke-width: 0; stroke-dasharray: none; stroke-linecap: butt; stroke-dashoffset: 0; stroke-linejoin: miter; stroke-miterlimit: 4; fill: rgb(66,206,244); fill-rule: nonzero; opacity: 1;" transform="matrix(1.011935 0 0 1.011935 599.856574 616.964978) matrix(1 0 0 1 -1.065 -0.025858)  translate(-501.79, -304.829142)" d="M 976.64 297.14 L 976.64 297.14 C 939.91 269.07 921.34 228.14 912.23 198.71 C 902.45 167.16 901.23 141.94 901.14 140.89 L 900.76 131.56 L 737.67 131.56 L 736.13 129.49 C 727.64 118.17 718.35 107.45 708.35 97.44 C 593.79 -17.11 408.07 -17.11 293.51 97.44 C 283.50 107.45 274.22 118.16 265.73 129.49 L 264.19 131.56 L 102.74 131.56 L 102.74 141.28 C 102.74 184.51 81.52 224.68 63.74 250.77 C 52.25 267.69 39.09 283.42 24.46 297.71 L 16.85 304.86 L 24.44 312.00 C 39.06 326.29 52.21 342.01 63.71 358.92 C 81.51 385.00 102.71 425.18 102.71 468.43 L 102.71 478.14 L 264.19 478.14 L 265.73 480.21 C 274.22 491.52 283.50 502.21 293.51 512.21 C 348.52 567.22 423.13 598.13 500.93 598.13 C 578.73 598.13 653.34 567.22 708.35 512.21 C 718.36 502.21 727.64 491.52 736.13 480.21 L 737.67 478.14 L 900.76 478.14 L 901.14 468.86 C 902.61 449.21 906.33 429.80 912.23 411.00 C 921.34 381.59 939.91 340.64 976.65 312.57 L 986.73 304.85 Z M 503.35 579.82 C 430.39 580.02 360.37 551.02 308.92 499.29 C 298.07 488.44 288.13 476.71 279.21 464.22 L 276.07 459.79 L 123.38 459.79 L 122.86 454.15 C 118.86 411.44 98.08 373.15 81.30 348.58 C 71.77 334.66 61.23 321.46 49.75 309.10 L 45.75 304.86 L 49.75 300.62 C 61.23 288.26 71.77 275.06 81.30 261.14 C 98.08 236.56 118.91 198.29 122.86 155.57 L 123.38 149.93 L 276.06 149.93 L 279.23 145.47 C 288.15 133.01 298.08 121.30 308.92 110.47 C 416.31 3.11 590.39 3.11 697.78 110.47 C 708.62 121.32 718.56 133.05 727.48 145.53 L 730.64 149.97 L 885.81 149.97 L 886.50 155.41 C 888.63 171.93 892.17 188.24 897.09 204.16 C 905.51 231.35 922.30 270.11 954.48 300.37 L 959.30 304.90 L 954.48 309.43 C 922.30 339.69 905.48 378.43 897.09 405.64 C 892.17 421.56 888.63 437.87 886.50 454.40 L 885.81 459.83 L 730.64 459.83 L 727.46 464.29 C 718.54 476.75 708.62 488.46 697.78 499.29 C 646.32 551.02 576.31 580.02 503.35 579.82 Z" stroke-linecap="round"/>
</g>
		<g id="Layer_1-2">
<path style="stroke: rgb(193,193,193); stroke-width: 0; stroke-dasharray: none; stroke-linecap: butt; stroke-dashoffset: 0; stroke-linejoin: miter; stroke-miterlimit: 4; fill: rgb(66,206,244); fill-rule: nonzero; opacity: 1;" transform="matrix(1.011935 0 0 1.011935 599.856574 616.964978) matrix(1 0 0 1 -0.53 0.045354)  translate(-502.325, -304.900354)" d="M 951.06 304.00 C 918.06 273.00 900.91 233.39 892.31 205.63 C 887.31 189.42 883.71 172.82 881.54 156.00 L 881.40 154.93 L 728.06 154.93 L 723.41 148.39 C 714.65 136.14 704.89 124.64 694.24 114.00 C 588.80 8.59 417.89 8.59 312.45 114.00 C 301.81 124.65 292.06 136.15 283.30 148.40 L 278.65 154.96 L 127.94 154.96 L 127.84 156.07 C 123.84 199.85 102.54 238.92 85.43 263.99 C 75.76 278.12 65.07 291.51 53.43 304.06 L 52.65 304.89 L 53.42 305.72 C 65.06 318.27 75.76 331.66 85.42 345.79 C 102.53 370.86 123.78 409.94 127.83 453.72 L 127.93 454.82 L 278.65 454.82 L 283.29 461.37 C 292.05 473.62 301.80 485.13 312.45 495.78 C 363.08 546.41 431.74 574.86 503.35 574.86 C 574.95 574.86 643.61 546.41 694.24 495.78 C 704.88 485.13 714.63 473.63 723.39 461.39 L 728.06 454.82 L 881.40 454.82 L 881.54 453.76 C 883.71 436.95 887.31 420.35 892.31 404.15 C 900.91 376.39 918.08 336.79 951.06 305.78 L 952.00 304.89 Z" stroke-linecap="round"/>
</g>
		<g id="Layer_1-2">
<path style="stroke: rgb(193,193,193); stroke-width: 0; stroke-dasharray: none; stroke-linecap: butt; stroke-dashoffset: 0; stroke-linejoin: miter; stroke-miterlimit: 4; fill: rgb(91,174,243); fill-rule: nonzero; opacity: 1;" transform="matrix(1.011935 0 0 1.011935 599.856574 616.964978) matrix(1 0 0 1 0 0)  translate(-502.855, -304.855)" d="M 898.25 203.76 C 893.36 187.91 889.83 171.66 887.71 155.21 L 886.88 148.71 L 731.27 148.71 L 728.47 144.79 C 719.51 132.25 709.53 120.47 698.64 109.57 C 590.78 1.72 415.92 1.72 308.06 109.57 C 297.17 120.46 287.20 132.23 278.24 144.76 L 277.54 145.76 L 277.54 145.76 L 277.54 145.76 L 275.48 148.68 L 122.27 148.68 L 121.65 155.43 C 117.72 197.92 97.00 236.00 80.30 260.46 C 70.80 274.33 60.29 287.48 48.85 299.80 L 44.14 304.86 L 48.85 309.93 C 60.29 322.25 70.81 335.40 80.30 349.27 C 96.99 373.73 117.72 411.81 121.65 454.27 L 122.27 461.02 L 275.44 461.02 L 278.22 464.94 C 287.18 477.48 297.16 489.26 308.06 500.16 C 415.92 608.01 590.78 608.01 698.64 500.16 C 709.53 489.28 719.50 477.52 728.45 465.00 L 729.17 464.00 L 729.17 464.00 L 729.17 464.00 L 731.23 461.09 L 886.88 461.09 L 887.71 454.59 C 889.83 438.12 893.35 421.87 898.25 406.00 C 906.63 379.00 923.33 340.40 955.32 310.32 L 961.08 304.90 L 955.32 299.48 C 923.33 269.36 906.63 230.81 898.25 203.76 Z M 891.15 403.76 C 886.12 420.02 882.50 436.69 880.33 453.57 L 727.43 453.57 L 723.14 459.62 L 722.40 460.62 C 713.69 472.82 703.99 484.27 693.40 494.87 C 643.00 545.27 574.65 573.59 503.37 573.59 C 432.09 573.59 363.74 545.27 313.34 494.87 C 302.75 484.27 293.05 472.81 284.34 460.61 L 279.34 453.55 L 129.05 453.55 C 125.05 409.97 104.18 371.05 86.44 345.06 C 76.73 330.88 65.99 317.45 54.30 304.86 C 65.99 292.27 76.74 278.83 86.44 264.65 C 104.18 238.65 125.02 199.74 129.05 156.15 L 279.28 156.15 L 283.57 150.08 L 284.29 149.08 C 293.00 136.89 302.70 125.43 313.29 114.83 C 418.24 9.88 588.40 9.88 693.35 114.83 C 703.94 125.44 713.64 136.90 722.35 149.10 L 727.35 156.15 L 880.25 156.15 C 882.45 173.05 886.09 189.73 891.15 206.00 C 900.15 234.94 917.45 274.08 950.23 304.90 C 917.45 335.68 900.11 374.83 891.15 403.76 Z M 983.65 288.00 L 983.56 287.93 C 949.30 261.71 931.85 223.10 923.24 195.31 C 917.65 177.47 914.10 159.06 912.66 140.43 L 911.83 120.00 L 743.42 120.00 C 735.13 109.18 726.14 98.92 716.50 89.29 C 597.44 -29.76 404.42 -29.76 285.36 89.29 C 275.72 98.92 266.73 109.18 258.44 120.00 L 91.21 120.00 L 91.21 141.25 C 91.21 181.54 71.09 219.50 54.21 244.25 C 43.18 260.45 30.57 275.53 16.57 289.25 L 0.00 304.86 L 16.57 320.44 C 30.56 334.16 43.16 349.24 54.19 365.44 C 71.08 390.18 91.19 428.14 91.19 468.44 L 91.19 489.68 L 258.44 489.68 C 266.73 500.51 275.72 510.78 285.36 520.42 C 404.42 639.47 597.44 639.47 716.50 520.42 C 726.14 510.78 735.13 500.51 743.42 489.68 L 911.83 489.68 L 912.65 469.36 C 914.10 450.70 917.65 432.27 923.24 414.41 C 931.85 386.61 949.33 347.95 983.65 321.72 L 1005.71 304.85 Z M 975.91 311.62 C 938.91 339.88 920.23 381.08 911.06 410.62 C 905.14 429.52 901.40 449.04 899.92 468.79 L 899.59 476.91 L 737.06 476.91 L 735.15 479.47 C 726.70 490.75 717.45 501.42 707.49 511.39 C 593.41 625.47 408.45 625.47 294.37 511.39 C 284.41 501.42 275.17 490.75 266.71 479.47 L 264.80 476.91 L 104.00 476.91 L 104.00 468.42 C 104.00 424.86 82.66 384.42 64.76 358.22 C 53.20 341.24 39.99 325.46 25.31 311.09 L 18.65 304.83 L 25.32 298.57 C 40.02 284.22 53.24 268.42 64.77 251.42 C 82.63 225.23 104.00 184.83 104.00 141.28 L 104.00 132.78 L 264.80 132.78 L 266.71 130.23 C 275.16 118.95 284.41 108.28 294.37 98.30 C 408.45 -15.77 593.41 -15.77 707.49 98.30 C 717.45 108.28 726.70 118.95 735.15 130.23 L 737.06 132.78 L 899.59 132.78 L 899.92 140.94 C 899.92 141.20 901.11 166.94 911.06 199.07 C 920.23 228.65 938.92 269.85 975.90 298.07 L 984.73 304.82 Z" stroke-linecap="round"/>
</g>
</g>
</g>
<g id="Qpd9jE1mLNbgRWpR4i2Ur">
<path style="stroke: rgb(114,114,114); stroke-width: 0; stroke-dasharray: none; stroke-linecap: butt; stroke-dashoffset: 0; stroke-linejoin: round; stroke-miterlimit: 4; fill: rgb(114,114,114); fill-rule: nonzero; opacity: 1;" vector-effect="non-scaling-stroke" transform="matrix(1 0 0 1 0 0)  translate(0, 0)" d="" stroke-linecap="round"/>
</g>
<g id="069Y7NiAr1RB4GzriER_W">
<g>
		<g id="-OE-EJTomqvLzLCi7Ohqt">
<path style="stroke: rgb(136,136,136); stroke-width: 0; stroke-dasharray: none; stroke-linecap: butt; stroke-dashoffset: 0; stroke-linejoin: miter; stroke-miterlimit: 4; fill: rgb(255,250,245); fill-rule: nonzero; opacity: 1;" d="M424.61,738.83l0.3,0.4c0.41,0.55 0.82,1.23 1.22,2.04c0.4,0.81 0.74,1.43 1.03,1.85c0.28,0.43 0.44,0.8 0.49,1.14c0.08,0.64 -0.41,1.37 -1.48,2.19c-1.08,0.81 -1.77,1.01 -2.08,0.6c-0.1,-0.13 -0.05,-0.68 0.15,-1.66c0.2,-0.97 0.25,-1.79 0.15,-2.45c-0.19,-1.18 -0.67,-2.3 -1.47,-3.35c-0.45,-0.59 -1.07,-1.07 -1.86,-1.43c-2.36,-1.09 -5.17,-0.4 -8.42,2.06c-2.02,1.55 -3.3,3.26 -3.85,5.13c-0.53,1.88 -0.17,3.65 1.1,5.32c1.07,1.43 2.46,2.28 4.15,2.55c1.04,0.17 1.63,0.34 1.77,0.52c0.24,0.32 0.13,0.66 -0.34,1.02c-0.25,0.19 -0.74,0.32 -1.48,0.4c-0.74,0.09 -1.36,0.03 -1.86,-0.18c-1.37,-0.62 -2.7,-1.76 -3.97,-3.44l-0.31,-0.42c-0.72,-0.94 -1.27,-2.02 -1.66,-3.24c-0.79,-2.48 -0.45,-4.88 1,-7.22c0.76,-1.21 1.77,-2.3 3.04,-3.25c1.26,-0.96 2.58,-1.64 3.95,-2.04c2.76,-0.81 5.27,-0.53 7.52,0.84c1.14,0.69 2.1,1.57 2.91,2.62zM433.02,754.91l-3.59,3.35c-0.52,0.48 -0.78,0.83 -0.77,1.05c0,0.21 0.18,0.51 0.54,0.89l0.43,0.46c0.99,1.07 2.03,1.64 3.1,1.73c1.07,0.08 2.04,-0.28 2.9,-1.08l0.44,-0.41c0.89,-0.83 1.33,-1.77 1.31,-2.82c-0.01,-1.05 -0.44,-2.03 -1.3,-2.95l-0.62,-0.66c-0.41,-0.45 -0.74,-0.66 -0.99,-0.63c-0.24,0.04 -0.72,0.39 -1.45,1.07zM437.47,754.36c2.42,2.6 3.18,5 2.28,7.22c-0.24,0.6 -0.68,1.2 -1.33,1.8c-1.2,1.12 -2.74,1.55 -4.64,1.31c-1.06,-0.13 -1.76,-0.05 -2.09,0.26c-0.1,0.1 -0.42,1.06 -0.96,2.88c-0.54,1.82 -0.86,3.09 -0.96,3.79c-0.11,0.71 -0.04,1.39 0.22,2.06c0.26,0.67 0.31,1.09 0.14,1.24c-0.51,0.48 -1.28,0.16 -2.31,-0.95c-0.76,-0.81 -1.12,-1.59 -1.11,-2.36c0.02,-0.53 0.38,-1.91 1.09,-4.14c0.72,-2.23 1.09,-3.45 1.13,-3.69c0.12,-0.83 -0.17,-1.62 -0.89,-2.39c-0.31,-0.33 -0.67,-0.42 -1.08,-0.26c-0.4,0.15 -1.12,0.7 -2.15,1.66c-1.03,0.96 -1.65,1.67 -1.85,2.12c-0.21,0.45 -0.33,0.96 -0.37,1.53c-0.04,0.57 -0.09,0.88 -0.13,0.93c-0.25,0.22 -0.79,-0.12 -1.64,-1.02l-0.32,-0.38l-0.31,-0.38c-0.14,-0.16 -0.36,-0.4 -0.67,-0.73c-1.57,-1.68 -2.21,-2.66 -1.92,-2.92c0.29,-0.27 0.61,-0.35 0.98,-0.24c0.93,0.25 1.45,0.36 1.57,0.33c0.46,-0.12 1.36,-0.8 2.7,-2.06l0.78,-0.68l0.76,-0.68c0.25,-0.24 0.5,-0.47 0.75,-0.7l1.09,-1.06c2.91,-2.71 4.55,-4.37 4.91,-4.97c0.37,-0.6 0.49,-1.17 0.37,-1.73c-0.12,-0.57 -0.1,-0.93 0.07,-1.08c0.28,-0.27 0.96,0.17 2.02,1.31l0.35,0.35c0.24,0.25 0.47,0.49 0.7,0.74l2.12,2.14zM448.03,780.81l0.05,-0.06c0.61,-0.69 1.53,-2.93 2.77,-6.73c0.21,-0.66 0.32,-0.99 0.31,-0.99l-0.97,0.45c-3.71,1.77 -5.83,2.96 -6.36,3.57c-0.09,0.1 -0.08,0.22 0.05,0.34c0.11,0.12 0.21,0.2 0.27,0.26l0.85,0.78l0.78,0.69l0.09,0.05c1.35,1.19 2.07,1.74 2.16,1.64zM433.69,778.63c0.16,-0.19 0.56,-0.22 1.19,-0.09c0.63,0.13 1.21,0.09 1.74,-0.11c0.52,-0.21 1.4,-0.64 2.61,-1.3c1.23,-0.67 2.8,-1.47 4.73,-2.41c1.92,-0.95 3.59,-1.86 4.99,-2.73c1.41,-0.87 2.31,-1.4 2.73,-1.6c0.92,-0.45 1.67,-0.44 2.22,0.05l0.3,0.27c0.15,0.12 0.25,0.35 0.32,0.69c0.14,0.68 -0.02,1.73 -0.47,3.17c-0.15,0.48 -0.45,1.29 -0.89,2.41c-0.45,1.13 -1.29,3.35 -2.55,6.64c-1.26,3.31 -1.93,5.12 -2.01,5.43c-0.16,0.54 -0.11,1.12 0.12,1.74c0.24,0.62 0.3,0.99 0.18,1.13c-0.28,0.32 -0.63,0.35 -1.05,0.09c-0.3,-0.16 -0.96,-0.69 -1.97,-1.57l-0.65,-0.56c-1.35,-1.19 -1.87,-1.97 -1.55,-2.33c0.06,-0.07 0.28,-0.15 0.67,-0.25c0.4,-0.1 0.76,-0.34 1.09,-0.72c0.34,-0.38 0.68,-1.05 1.03,-2c0.35,-0.95 0.5,-1.6 0.47,-1.93c-0.04,-0.34 -0.77,-1.12 -2.18,-2.36c-1.41,-1.23 -2.3,-1.88 -2.67,-1.93c-0.37,-0.05 -0.99,0.14 -1.84,0.58c-0.87,0.43 -1.49,0.86 -1.85,1.29c-0.38,0.42 -0.58,0.91 -0.6,1.46c-0.02,0.55 -0.04,0.84 -0.05,0.85c-0.23,0.26 -0.8,0 -1.7,-0.79c-0.9,-0.79 -1.57,-1.44 -2.02,-1.96c-0.45,-0.52 -0.56,-0.91 -0.34,-1.16zM475.49,787.14c0.65,0.47 1,0.96 1.07,1.48c0.07,0.53 -0.26,1.31 -1,2.34c-0.41,0.58 -0.75,0.78 -1.01,0.59c-0.03,-0.02 -0.15,-0.39 -0.36,-1.11c-0.21,-0.72 -0.43,-1.26 -0.66,-1.64c-0.59,-0.91 -1.5,-1.81 -2.73,-2.68c-0.76,-0.56 -1.48,-0.69 -2.15,-0.41c-0.67,0.28 -1.54,1.16 -2.6,2.65c-0.59,0.83 -0.85,1.5 -0.77,2.02c0.09,0.52 0.43,0.99 1.04,1.43c0.59,0.42 1.29,0.67 2.08,0.72c0.79,0.07 1.2,0.11 1.23,0.14c0.3,0.21 0.41,0.49 0.34,0.84c-0.07,0.36 -0.33,0.84 -0.76,1.45c-0.95,1.33 -1.76,1.76 -2.43,1.28c-0.11,-0.07 -0.31,-0.4 -0.6,-0.98c-0.29,-0.58 -0.54,-0.94 -0.76,-1.09c-0.76,-0.55 -1.44,-0.81 -2.04,-0.79c-0.6,0.02 -1.22,0.49 -1.87,1.39c-0.65,0.91 -1.13,1.75 -1.45,2.53c-0.32,0.78 -0.49,1.3 -0.52,1.53c-0.03,0.25 -0.05,0.52 -0.06,0.8c0,0.29 -0.03,0.47 -0.09,0.55c-0.21,0.29 -0.85,0.05 -1.93,-0.71l-0.41,-0.3l-0.4,-0.31c-2.17,-1.56 -3.1,-2.55 -2.79,-2.98c0.16,-0.23 0.55,-0.32 1.16,-0.29c0.63,0.04 1.09,-0.06 1.39,-0.29c0.32,-0.24 0.89,-0.93 1.72,-2.1l1.71,-2.38l0.94,-1.25l0.94,-1.27l0.93,-1.31c1.32,-1.83 2.08,-3.05 2.29,-3.66c0.22,-0.6 0.26,-1.07 0.14,-1.42c-0.29,-0.87 -0.41,-1.34 -0.35,-1.42c0.19,-0.27 0.48,-0.33 0.86,-0.18c0.24,0.1 0.93,0.56 2.06,1.37l3.04,2.08l1.32,0.89zM494.29,802.36l-0.23,0.4c-0.41,0.69 -0.81,0.92 -1.22,0.68c-0.12,-0.07 -0.23,-0.52 -0.31,-1.34c-0.09,-0.83 -0.28,-1.5 -0.57,-1.99c-0.29,-0.5 -0.78,-0.96 -1.46,-1.36c-0.69,-0.4 -1.17,-0.58 -1.45,-0.53c-0.28,0.04 -0.6,0.27 -0.95,0.68c-0.35,0.42 -1.56,2.4 -3.64,5.96c-2.09,3.55 -3.22,5.63 -3.41,6.24c-0.19,0.6 -0.14,1.24 0.17,1.92c0.31,0.68 0.39,1.13 0.25,1.38c-0.14,0.23 -0.61,0.12 -1.4,-0.35l-0.43,-0.26l-0.82,-0.49c-0.28,-0.18 -0.56,-0.35 -0.83,-0.51l-1.22,-0.73c-1.07,-0.62 -1.73,-1.05 -1.99,-1.28c-0.26,-0.22 -0.3,-0.47 -0.14,-0.76c0.09,-0.14 0.5,-0.23 1.25,-0.26c0.74,-0.02 1.35,-0.28 1.83,-0.77c0.47,-0.49 1.78,-2.58 3.95,-6.27c2.15,-3.69 3.29,-5.75 3.4,-6.17c0.14,-0.55 -0.19,-1.06 -1,-1.53c-0.8,-0.47 -1.5,-0.71 -2.08,-0.71c-0.59,0 -1.27,0.19 -2.03,0.56c-0.76,0.37 -1.31,0.45 -1.64,0.26c-0.25,-0.15 -0.24,-0.46 0.03,-0.92l0.22,-0.38c1.06,-1.81 1.81,-2.73 2.25,-2.77c0.17,-0.02 2.68,1.4 7.55,4.24l6.03,3.5c0.63,0.37 0.94,0.77 0.93,1.2c-0.02,0.43 -0.37,1.22 -1.04,2.36zM506.83,805.6c-0.08,0.17 -0.46,0.29 -1.12,0.37c-0.66,0.08 -1.18,0.38 -1.57,0.88c-0.39,0.5 -1.52,2.68 -3.39,6.55c-1.86,3.86 -2.86,6.11 -2.99,6.74c-0.12,0.62 0,1.2 0.36,1.71c0.37,0.52 0.49,0.9 0.38,1.14c-0.16,0.32 -0.64,0.29 -1.44,-0.09l-0.29,-0.17l-0.59,-0.3c-0.21,-0.1 -0.4,-0.2 -0.6,-0.3l-0.58,-0.31l-1.78,-0.86c-1.43,-0.69 -2.08,-1.16 -1.95,-1.42l0.08,-0.18c0.08,-0.17 0.49,-0.28 1.21,-0.34c0.73,-0.05 1.31,-0.35 1.74,-0.88c0.43,-0.54 1.54,-2.66 3.32,-6.36c1.79,-3.69 2.75,-5.89 2.89,-6.59c0.13,-0.7 0.06,-1.23 -0.21,-1.6c-0.53,-0.74 -0.74,-1.22 -0.65,-1.42c0.17,-0.34 1.61,0.14 4.32,1.45l1.47,0.68l0.86,0.41c0.52,0.25 0.69,0.55 0.53,0.89zM523.06,829.58c-0.59,1.57 -0.99,2.47 -1.18,2.69c-0.2,0.22 -0.48,0.27 -0.83,0.14c-0.75,-0.29 -1.43,-1.33 -2.06,-3.13l-0.22,-0.66c-0.45,-1.43 -0.85,-2.9 -1.22,-4.42c-0.36,-1.52 -0.61,-2.55 -0.74,-3.09c-1.35,-4.98 -2.14,-7.52 -2.38,-7.61c-0.2,-0.07 -0.9,1.5 -2.11,4.7c-1.21,3.21 -1.93,5.53 -2.16,6.96c-0.09,0.5 -0.07,1.04 0.07,1.6c0.13,0.57 0.17,0.94 0.11,1.09c-0.15,0.4 -1.15,0.24 -3,-0.46l-0.63,-0.23c-1.29,-0.49 -1.88,-0.9 -1.76,-1.23c0.13,-0.33 0.53,-0.55 1.21,-0.65c0.68,-0.1 1.19,-0.4 1.54,-0.89c0.36,-0.49 1.15,-2.37 2.39,-5.66l0.81,-2.04l0.75,-2c0.73,-1.95 1.1,-3.26 1.08,-3.95c0,-0.33 -0.19,-0.79 -0.57,-1.38c-0.36,-0.6 -0.53,-0.93 -0.5,-1.01c0.18,-0.48 0.76,-0.53 1.75,-0.16c1,0.38 1.73,0.79 2.22,1.24c0.48,0.46 0.87,0.98 1.15,1.56c0.29,0.59 0.8,2.14 1.54,4.66c0.74,2.52 1.24,4.28 1.5,5.28l0.57,2.04c0.68,2.43 1.06,3.67 1.16,3.7c0.29,0.11 1.04,-1.43 2.24,-4.61c1.2,-3.19 1.87,-5.14 1.99,-5.85c0.12,-0.7 0.07,-1.34 -0.17,-1.93c-0.23,-0.58 -0.34,-0.89 -0.32,-0.93c0.17,-0.44 0.74,-0.49 1.71,-0.12l1.31,0.5c1.16,0.43 1.9,0.81 2.2,1.13c0.18,0.18 0.22,0.41 0.11,0.71c-0.01,0.02 -0.49,0.25 -1.45,0.67c-0.51,0.23 -0.94,0.6 -1.27,1.12c-0.33,0.53 -1.13,2.48 -2.41,5.85l-1.03,2.67zM545.12,818.29c2.71,0.7 4.6,1.42 5.68,2.17c0.24,0.17 0.44,0.45 0.59,0.87c0.16,0.41 0.13,1.04 -0.09,1.9c-0.22,0.87 -0.53,1.39 -0.91,1.57l-0.32,0.09c-0.25,-0.07 -0.59,-0.51 -1,-1.32c-0.98,-1.86 -2.42,-3.04 -4.34,-3.53c-1.89,-0.48 -3.61,-0.13 -5.14,1.06c-1.51,1.2 -2.58,3.03 -3.21,5.5c-0.63,2.46 -0.55,4.61 0.24,6.47c0.8,1.87 2.16,3.05 4.1,3.55c1.26,0.32 2.24,0.29 2.94,-0.1c0.71,-0.38 1.26,-1.36 1.66,-2.93c0.16,-0.6 0.15,-1.17 -0.02,-1.7c-0.04,-0.14 -0.18,-0.39 -0.4,-0.76c-0.22,-0.37 -0.33,-0.58 -0.31,-0.66c0.11,-0.4 1.09,-0.37 2.95,0.11c1.19,0.3 1.97,0.57 2.33,0.79c0.35,0.23 0.48,0.52 0.39,0.87c-0.01,0.07 -0.19,0.25 -0.53,0.55c-0.34,0.3 -0.54,0.51 -0.62,0.63c-0.07,0.11 -0.35,0.9 -0.85,2.37c-0.51,1.47 -0.91,2.32 -1.2,2.57c-0.29,0.25 -0.88,0.4 -1.79,0.43c-2.31,0.12 -3.98,0.05 -5.01,-0.22l-0.56,-0.14c-1.33,-0.34 -2.52,-0.89 -3.58,-1.65c-1.05,-0.76 -1.89,-1.66 -2.5,-2.69c-0.61,-1.03 -1,-2.26 -1.17,-3.69c-0.17,-1.43 -0.08,-2.82 0.27,-4.18l0.15,-0.61c0.34,-1.33 0.95,-2.58 1.81,-3.75c1.62,-2.19 3.71,-3.45 6.27,-3.8c1.42,-0.19 2.81,-0.11 4.17,0.23zM577.64,826.32c-0.74,-0.63 -1.61,-0.99 -2.6,-1.1c-1,-0.1 -1.85,0.07 -2.53,0.52c-0.68,0.45 -1.08,1.14 -1.18,2.08c-0.1,0.94 0.29,1.81 1.15,2.63c0.52,0.5 1.61,1.21 3.26,2.15c1.67,0.93 2.8,1.75 3.41,2.45c1.17,1.35 1.69,2.67 1.55,3.97l-0.05,0.52c-0.18,1.62 -0.95,2.86 -2.34,3.73c-0.64,0.41 -1.42,0.7 -2.34,0.88c-0.91,0.18 -1.81,0.23 -2.69,0.13l-0.53,-0.05c-2.01,-0.22 -3.73,-0.71 -5.17,-1.47c-0.65,-0.34 -0.91,-1.12 -0.79,-2.34l0.06,-0.5c0.15,-1.44 0.48,-2.13 0.97,-2.08c0.34,0.04 0.75,0.55 1.24,1.53c0.48,0.98 1.08,1.75 1.8,2.3c0.71,0.55 1.61,0.88 2.69,0.99c1.07,0.12 1.97,-0.08 2.69,-0.58c0.72,-0.49 1.12,-1.15 1.21,-1.99c0.12,-1.15 -0.31,-2.17 -1.29,-3.07c-0.42,-0.38 -1.51,-1.1 -3.25,-2.14c-1.74,-1.04 -2.93,-1.97 -3.56,-2.78c-0.87,-1.12 -1.22,-2.4 -1.07,-3.86c0.16,-1.45 0.81,-2.61 1.95,-3.46c0.63,-0.48 1.38,-0.81 2.27,-1.02c0.89,-0.2 1.78,-0.26 2.67,-0.16l0.54,0.05c0.37,0.04 0.89,0.16 1.55,0.36l0.51,0.15c0.58,0.19 0.9,0.28 0.95,0.3l0.44,0.07l0.44,0.07c0.41,0.07 0.69,0.15 0.85,0.23c0.55,0.3 0.74,1.14 0.6,2.53c-0.15,1.38 -0.5,2.05 -1.04,1.99c-0.27,-0.03 -0.64,-0.46 -1.1,-1.29c-0.46,-0.84 -0.88,-1.41 -1.27,-1.74zM590.57,834.57v0.79c-0.03,2.55 0.51,4.68 1.61,6.41c0.51,0.77 1.14,1.39 1.89,1.84c0.75,0.46 1.53,0.69 2.33,0.7h0.23c1.74,0.01 3.14,-0.78 4.2,-2.39c0.42,-0.62 0.77,-1.45 1.08,-2.49c0.3,-1.05 0.46,-2.16 0.47,-3.34l0.01,-0.81c0.01,-1.3 -0.15,-2.53 -0.47,-3.68c-1.63,-2.84 -3.44,-4.59 -5.44,-5.25c-0.72,0 -1.44,0.17 -2.17,0.49c-1.51,0.69 -2.58,2.09 -3.2,4.21c-0.35,1.19 -0.53,2.36 -0.54,3.52zM606.4,834.87l-0.01,0.69c-0.01,1.33 -0.25,2.65 -0.73,3.95c-1,2.72 -2.73,4.59 -5.22,5.61c-1.26,0.53 -2.52,0.78 -3.8,0.77l-0.69,-0.01c-1.26,-0.01 -2.43,-0.28 -3.53,-0.79c-1.09,-0.52 -2.03,-1.2 -2.82,-2.03c-0.8,-0.83 -1.44,-1.92 -1.92,-3.28c-0.47,-1.35 -0.7,-2.69 -0.69,-4.02l0.01,-0.69c0.01,-1.35 0.26,-2.68 0.74,-3.99c0.48,-1.31 1.15,-2.43 2.01,-3.36c0.86,-0.93 1.89,-1.65 3.11,-2.17c1.21,-0.51 2.47,-0.77 3.77,-0.75h0.34c2.78,0.03 5.01,0.92 6.68,2.68c0.83,0.89 1.5,2 2.01,3.33c0.51,1.35 0.75,2.7 0.74,4.06zM622.86,844.34l-0.43,0.04l-0.44,0.02l-2.17,0.2c-3.46,0.32 -5.32,0.46 -5.6,0.44c-0.52,-0.04 -0.79,-0.23 -0.82,-0.56c-0.02,-0.15 0.23,-0.43 0.72,-0.85c0.5,-0.42 0.8,-0.99 0.89,-1.69c0.1,-0.71 -0.06,-3.28 -0.46,-7.69c-0.41,-4.42 -0.68,-6.81 -0.82,-7.19c-0.15,-0.37 -0.46,-0.63 -0.94,-0.78c-0.75,-0.25 -1.14,-0.55 -1.18,-0.9c-0.03,-0.35 0.5,-0.58 1.6,-0.68l0.86,-0.08l0.43,-0.02l1.32,-0.11c2.35,-0.22 3.54,-0.15 3.57,0.2c0.01,0.12 -0.29,0.55 -0.92,1.28c-0.35,0.42 -0.57,1.09 -0.66,2.02c-0.09,0.94 0.05,3.4 0.41,7.38c0.37,3.97 0.63,6.14 0.79,6.5c0.16,0.36 0.46,0.59 0.92,0.69c0.28,0.07 0.82,0.07 1.62,-0.01c1.72,-0.16 2.99,-0.5 3.81,-1.03c0.46,-0.3 0.94,-0.87 1.43,-1.71c0.49,-0.83 0.89,-1.27 1.2,-1.29c0.32,-0.03 0.5,0.15 0.54,0.56l0.03,0.38c0.2,2.14 0.06,3.47 -0.42,3.99c-0.27,0.3 -2.03,0.59 -5.28,0.89zM639.6,821.99c0.03,0.18 -0.2,0.5 -0.69,0.94c-0.5,0.45 -0.76,0.99 -0.78,1.63c-0.03,0.63 0.31,3.06 1.02,7.3c0.71,4.23 1.19,6.64 1.45,7.23c0.26,0.58 0.69,0.98 1.29,1.19c0.6,0.21 0.92,0.45 0.96,0.71c0.06,0.36 -0.35,0.61 -1.23,0.76l-0.32,0.03l-0.66,0.1c-0.23,0.03 -0.45,0.06 -0.68,0.1l-0.63,0.08l-1.95,0.33c-1.58,0.26 -2.38,0.25 -2.43,-0.03l-0.04,-0.2c-0.03,-0.18 0.24,-0.51 0.8,-0.98c0.56,-0.46 0.86,-1.04 0.91,-1.72c0.04,-0.69 -0.28,-3.06 -0.96,-7.11c-0.68,-4.05 -1.17,-6.4 -1.46,-7.04c-0.3,-0.65 -0.66,-1.05 -1.09,-1.19c-0.86,-0.3 -1.32,-0.56 -1.35,-0.79c-0.07,-0.37 1.39,-0.81 4.37,-1.31l1.58,-0.29l0.94,-0.16c0.57,-0.1 0.89,0.04 0.95,0.42zM652.98,819.99l-0.68,0.18c-1.04,0.27 -1.56,0.62 -1.57,1.07c0,0.21 0.33,1.62 1.01,4.23l1.36,5.31l0.17,0.7c0.06,0.24 0.12,0.47 0.18,0.7l0.17,0.7c0.06,0.24 0.12,0.48 0.18,0.71l0.22,0.93l0.18,0.69c0.25,0.98 0.55,1.56 0.88,1.72c0.33,0.16 1.03,0.1 2.09,-0.17l0.23,-0.07c1.97,-0.51 3.38,-1.57 4.23,-3.18c0.42,-0.8 0.67,-1.78 0.74,-2.92c0.07,-1.15 -0.03,-2.26 -0.31,-3.35l-0.27,-1.02c-0.26,-1.01 -0.68,-2.01 -1.25,-2.99c-1.18,-1.97 -2.79,-3.11 -4.84,-3.42c-0.83,-0.13 -1.73,-0.07 -2.72,0.18zM652.27,818.54l0.74,-0.18c4.74,-1.22 8.34,-0.18 10.78,3.12c0.81,1.09 1.38,2.31 1.73,3.66l0.1,0.39c0.41,1.57 0.51,3.05 0.31,4.44c-0.39,2.7 -1.74,4.88 -4.06,6.54c-1.07,0.76 -2.32,1.32 -3.74,1.69l-1.07,0.27l-0.35,0.07l-0.73,0.18c-0.24,0.05 -0.49,0.1 -0.73,0.17l-2.09,0.49c-2.12,0.55 -3.22,0.67 -3.3,0.36c-0.08,-0.32 0.05,-0.63 0.41,-0.94c0.6,-0.54 0.93,-0.92 0.98,-1.16c0.12,-0.5 -0.02,-1.52 -0.42,-3.07l-1.73,-6.73l-0.5,-1.79l-0.4,-1.43c-0.32,-1.26 -0.64,-2.04 -0.96,-2.32c-0.3,-0.28 -0.73,-0.46 -1.27,-0.54c-0.54,-0.07 -0.84,-0.26 -0.92,-0.57c-0.1,-0.36 0.58,-0.73 2.03,-1.1l1.35,-0.38l0.34,-0.12l0.33,-0.09c2.02,-0.61 3.08,-0.93 3.17,-0.96zM685.6,809.03l-0.64,0.28c-0.98,0.42 -1.44,0.86 -1.38,1.3c0.02,0.21 0.57,1.55 1.64,4.02l2.18,5.03l0.28,0.66c0.1,0.23 0.2,0.45 0.29,0.67l0.27,0.67c0.1,0.23 0.2,0.45 0.29,0.67l0.37,0.88l0.29,0.66c0.4,0.93 0.78,1.45 1.13,1.56c0.36,0.1 1.04,-0.06 2.04,-0.5l0.21,-0.1c1.87,-0.81 3.1,-2.08 3.69,-3.8c0.3,-0.86 0.39,-1.87 0.28,-3.01c-0.12,-1.13 -0.4,-2.22 -0.85,-3.25l-0.42,-0.97c-0.41,-0.96 -0.98,-1.88 -1.7,-2.75c-1.47,-1.77 -3.24,-2.65 -5.31,-2.63c-0.84,0 -1.73,0.2 -2.66,0.61zM684.68,807.71l0.7,-0.31c4.49,-1.94 8.2,-1.47 11.13,1.41c0.97,0.95 1.73,2.06 2.29,3.34l0.16,0.37c0.64,1.49 0.98,2.93 0.99,4.33c0.04,2.73 -0.96,5.1 -2.99,7.1c-0.93,0.91 -2.07,1.66 -3.43,2.25l-1.01,0.44l-0.33,0.12l-0.7,0.29c-0.23,0.09 -0.46,0.18 -0.69,0.28l-1.99,0.82c-2.01,0.87 -3.07,1.16 -3.2,0.87c-0.13,-0.3 -0.04,-0.63 0.26,-1c0.51,-0.62 0.77,-1.05 0.78,-1.3c0.04,-0.5 -0.26,-1.49 -0.9,-2.95l-2.76,-6.38l-0.77,-1.69l-0.62,-1.35c-0.52,-1.2 -0.95,-1.91 -1.3,-2.15c-0.35,-0.23 -0.79,-0.34 -1.34,-0.33c-0.54,0.01 -0.88,-0.13 -1,-0.42c-0.15,-0.34 0.46,-0.81 1.83,-1.4l1.27,-0.59l0.32,-0.17l0.32,-0.15c1.9,-0.92 2.89,-1.39 2.98,-1.43zM705.93,801.52l2.42,4.27c0.35,0.62 0.63,0.95 0.84,1c0.21,0.04 0.54,-0.07 1,-0.33l0.55,-0.31c1.26,-0.72 2.06,-1.59 2.39,-2.61c0.33,-1.03 0.21,-2.05 -0.38,-3.08l-0.29,-0.52c-0.6,-1.06 -1.42,-1.7 -2.44,-1.93c-1.02,-0.23 -2.08,-0.04 -3.17,0.58l-0.79,0.45c-0.53,0.31 -0.81,0.58 -0.83,0.82c-0.03,0.24 0.21,0.8 0.7,1.66zM706.42,797.07c3.08,-1.76 5.6,-1.94 7.55,-0.56c0.53,0.38 1.01,0.95 1.45,1.71c0.81,1.43 0.87,3.04 0.19,4.83c-0.37,1 -0.45,1.7 -0.22,2.09c0.07,0.12 0.93,0.65 2.57,1.6c1.65,0.95 2.81,1.55 3.47,1.81c0.66,0.27 1.35,0.36 2.06,0.26c0.71,-0.1 1.12,-0.05 1.24,0.16c0.34,0.6 -0.15,1.28 -1.46,2.02c-0.97,0.55 -1.82,0.73 -2.55,0.53c-0.52,-0.14 -1.78,-0.81 -3.78,-2.01c-2,-1.22 -3.11,-1.87 -3.33,-1.96c-0.78,-0.31 -1.62,-0.2 -2.54,0.32c-0.39,0.22 -0.55,0.55 -0.5,0.98c0.06,0.43 0.43,1.26 1.13,2.48c0.69,1.23 1.23,1.99 1.63,2.29c0.39,0.31 0.86,0.55 1.4,0.71c0.55,0.18 0.84,0.29 0.87,0.35c0.16,0.29 -0.29,0.74 -1.37,1.35l-0.44,0.23l-0.44,0.22c-0.19,0.09 -0.48,0.26 -0.86,0.48c-2,1.13 -3.1,1.53 -3.3,1.19c-0.19,-0.34 -0.19,-0.68 0,-1.01c0.46,-0.85 0.69,-1.33 0.69,-1.45c-0.01,-0.47 -0.47,-1.5 -1.38,-3.1l-0.49,-0.91l-0.48,-0.9c-0.17,-0.3 -0.34,-0.6 -0.51,-0.9l-0.78,-1.3c-1.96,-3.46 -3.2,-5.44 -3.7,-5.93c-0.49,-0.49 -1.03,-0.75 -1.6,-0.76c-0.58,-0.01 -0.92,-0.12 -1.03,-0.32c-0.2,-0.33 0.39,-0.89 1.74,-1.66l0.43,-0.26c0.29,-0.18 0.58,-0.35 0.87,-0.51l2.58,-1.57zM728.94,782.57c1.42,-1.01 2.7,-0.71 3.84,0.9c0.3,0.43 0.35,0.71 0.17,0.84c-0.11,0.07 -0.44,0.12 -0.99,0.15c-0.55,0.04 -0.99,0.11 -1.31,0.2c-1.41,0.41 -2.55,0.92 -3.43,1.54c-0.87,0.62 -1.33,1.25 -1.35,1.92c-0.03,0.92 0.51,2.18 1.65,3.79c0.4,0.57 0.89,0.86 1.48,0.86c0.59,0.01 1.14,-0.17 1.65,-0.52c0.51,-0.36 0.9,-0.9 1.18,-1.61c0.28,-0.72 0.42,-1.08 0.42,-1.09c0.41,-0.28 0.79,-0.32 1.16,-0.11c0.36,0.21 0.79,0.66 1.29,1.36c0.87,1.24 1.02,2.06 0.45,2.46c-0.15,0.11 -0.6,0.13 -1.35,0.09c-0.75,-0.05 -1.4,0.11 -1.93,0.49c-0.92,0.64 -1.39,1.27 -1.42,1.87c-0.02,0.4 0.42,1.24 1.32,2.52c0.9,1.28 1.79,2.05 2.66,2.32c0.48,0.14 1.21,-0.12 2.18,-0.8c0.96,-0.68 1.94,-1.68 2.93,-3c0.28,-0.37 0.48,-0.7 0.59,-1c0.11,-0.31 0.21,-0.62 0.31,-0.96c0.11,-0.32 0.19,-0.51 0.24,-0.54c0.27,-0.2 0.51,-0.16 0.7,0.12l0.27,0.38c0.43,0.61 0.68,1.19 0.75,1.74c0.06,0.54 0.04,0.93 -0.05,1.17c-0.18,0.44 -1.41,1.45 -3.68,3.05l-1.59,1.12l-0.53,0.35c-3.01,2.12 -4.77,3.31 -5.28,3.57c-0.51,0.26 -0.87,0.25 -1.07,-0.04c-0.13,-0.18 -0.08,-0.57 0.16,-1.15c0.23,-0.58 0.26,-1.13 0.09,-1.64c-0.17,-0.52 -1.27,-2.22 -3.31,-5.11l-3.25,-4.72c-1.07,-1.53 -1.84,-2.41 -2.29,-2.64c-0.21,-0.1 -0.59,-0.13 -1.15,-0.06c-0.56,0.08 -0.9,0.03 -1.01,-0.14c-0.23,-0.32 -0.11,-0.7 0.35,-1.14c0.2,-0.19 1.88,-1.4 5.06,-3.64l3.58,-2.54zM751.64,779.29l-0.05,-0.06c-0.6,-0.7 -2.7,-1.92 -6.29,-3.68c-0.62,-0.3 -0.94,-0.44 -0.95,-0.43l0.33,1.01c1.24,3.92 2.12,6.19 2.65,6.8c0.09,0.11 0.2,0.11 0.33,0c0.14,-0.1 0.24,-0.18 0.31,-0.24l0.88,-0.72l0.79,-0.68l0.07,-0.08c1.37,-1.18 2.01,-1.82 1.93,-1.92zM747.49,793.19c-0.16,-0.19 -0.14,-0.59 0.07,-1.19c0.22,-0.61 0.26,-1.19 0.13,-1.73c-0.13,-0.56 -0.43,-1.48 -0.92,-2.78c-0.49,-1.3 -1.07,-2.97 -1.74,-5.01c-0.67,-2.04 -1.33,-3.81 -2,-5.33c-0.67,-1.51 -1.07,-2.48 -1.21,-2.91c-0.32,-0.99 -0.2,-1.72 0.35,-2.19l0.31,-0.27c0.14,-0.12 0.38,-0.19 0.72,-0.22c0.7,-0.04 1.73,0.25 3.09,0.9c0.45,0.22 1.21,0.63 2.27,1.22c1.05,0.6 3.12,1.75 6.22,3.45c3.09,1.7 4.79,2.62 5.09,2.75c0.52,0.22 1.1,0.26 1.74,0.1c0.65,-0.15 1.03,-0.15 1.15,-0.01c0.27,0.31 0.25,0.66 -0.05,1.05c-0.21,0.28 -0.82,0.85 -1.84,1.73l-0.64,0.56c-1.36,1.18 -2.21,1.59 -2.53,1.22c-0.05,-0.06 -0.1,-0.3 -0.15,-0.7c-0.04,-0.4 -0.23,-0.8 -0.56,-1.18c-0.33,-0.38 -0.94,-0.81 -1.84,-1.29c-0.89,-0.48 -1.51,-0.72 -1.85,-0.73c-0.34,-0.01 -1.21,0.6 -2.63,1.82c-1.42,1.23 -2.18,2.02 -2.28,2.38c-0.11,0.36 0,1 0.31,1.91c0.31,0.92 0.65,1.59 1.01,2.02c0.37,0.43 0.83,0.69 1.37,0.79c0.55,0.1 0.82,0.15 0.83,0.16c0.23,0.27 -0.1,0.79 -1.01,1.57c-0.91,0.79 -1.65,1.36 -2.22,1.73c-0.57,0.38 -0.97,0.43 -1.19,0.18zM771.74,762.94c0.09,-0.11 -0.67,-2.09 -2.28,-5.94c-1.63,-3.86 -2.53,-6.15 -2.71,-6.87c-0.19,-0.73 -0.19,-1.36 0.02,-1.91c0.19,-0.54 0.69,-1.25 1.48,-2.12c0.79,-0.87 1.39,-1.12 1.8,-0.75l0.08,0.56l0.06,0.66c0.09,0.47 0.27,0.92 0.56,1.35c0.29,0.43 0.86,1.04 1.71,1.82c3.62,3.3 6.35,5.61 8.18,6.94c0.72,0.52 1.44,0.75 2.18,0.68c0.73,-0.05 1.16,-0.02 1.28,0.09l-0.06,0.45c-0.15,0.49 -0.69,1.24 -1.62,2.26c-0.93,1.02 -1.65,1.54 -2.15,1.56l-0.33,-0.12c-0.21,-0.19 -0.57,-0.66 -1.08,-1.41c-0.51,-0.76 -1.09,-1.43 -1.74,-2.02c-4.73,-4.32 -7.24,-6.33 -7.51,-6.03c-0.14,0.15 0.7,2.18 2.51,6.08c1.81,3.9 2.84,6.22 3.09,6.96c0.26,0.74 0.18,1.34 -0.23,1.79c-0.3,0.32 -2.82,-0.39 -7.58,-2.14c-4.76,-1.74 -7.24,-2.49 -7.47,-2.24c-0.18,0.2 1.5,1.92 5.04,5.15c1.57,1.43 2.56,2.28 2.96,2.56c0.41,0.29 0.92,0.6 1.53,0.94c0.62,0.34 1.01,0.58 1.17,0.73c0.17,0.15 0.21,0.39 0.11,0.72c-0.1,0.32 -0.3,0.65 -0.63,1.01l-0.54,0.6c-1.09,1.19 -1.78,1.64 -2.08,1.37c-0.15,-0.14 -0.22,-0.58 -0.19,-1.3c0.02,-0.73 -0.07,-1.24 -0.26,-1.54c-0.2,-0.3 -1.41,-1.58 -3.65,-3.84c-2.24,-2.25 -3.77,-3.75 -4.61,-4.52c-0.84,-0.76 -1.47,-1.24 -1.89,-1.45c-0.42,-0.19 -0.97,-0.27 -1.66,-0.23c-0.7,0.03 -1.14,-0.04 -1.33,-0.21c-0.23,-0.21 0.26,-0.98 1.48,-2.32c0.47,-0.51 0.94,-0.89 1.43,-1.13c0.48,-0.25 1.15,-0.31 2.01,-0.19c0.87,0.12 3.2,0.85 7.01,2.19c3.81,1.35 5.78,1.95 5.91,1.81zM780.03,733.77c-0.92,0.34 -1.67,0.91 -2.26,1.71c-0.59,0.81 -0.86,1.63 -0.81,2.44c0.05,0.82 0.46,1.51 1.22,2.07c0.76,0.55 1.71,0.66 2.85,0.31c0.69,-0.2 1.85,-0.78 3.49,-1.75c1.64,-0.97 2.91,-1.55 3.83,-1.73c1.75,-0.34 3.15,-0.13 4.21,0.64l0.43,0.31c1.31,0.95 1.99,2.25 2.06,3.88c0.03,0.77 -0.11,1.59 -0.41,2.47c-0.29,0.88 -0.7,1.68 -1.23,2.4l-0.32,0.44c-1.18,1.63 -2.46,2.88 -3.84,3.74c-0.62,0.39 -1.43,0.23 -2.41,-0.49l-0.42,-0.3c-1.17,-0.85 -1.61,-1.48 -1.31,-1.88c0.2,-0.28 0.85,-0.38 1.94,-0.31c1.09,0.07 2.06,-0.06 2.89,-0.41c0.83,-0.34 1.56,-0.95 2.2,-1.82c0.64,-0.88 0.92,-1.76 0.84,-2.63c-0.06,-0.87 -0.44,-1.56 -1.12,-2.05c-0.93,-0.68 -2.03,-0.82 -3.3,-0.41c-0.54,0.17 -1.7,0.76 -3.48,1.75c-1.77,0.99 -3.17,1.56 -4.19,1.7c-1.4,0.18 -2.69,-0.15 -3.87,-1.01c-1.18,-0.86 -1.86,-2 -2.03,-3.42c-0.1,-0.78 -0.01,-1.6 0.26,-2.47c0.26,-0.87 0.66,-1.67 1.19,-2.4l0.31,-0.44c0.22,-0.29 0.58,-0.68 1.09,-1.16l0.38,-0.36c0.45,-0.42 0.69,-0.64 0.73,-0.68l0.29,-0.35l0.28,-0.35c0.26,-0.31 0.46,-0.51 0.62,-0.61c0.53,-0.33 1.36,-0.08 2.49,0.74c1.13,0.82 1.53,1.45 1.21,1.89c-0.16,0.22 -0.72,0.32 -1.67,0.31c-0.95,-0.02 -1.67,0.06 -2.14,0.23z" stroke-linecap="round"/>
</g>
</g>
</g>
<g id="rkWvLITG-0KvDDrFHRqgB">
<path style="stroke: rgb(193,193,193); stroke-width: 0; stroke-dasharray: none; stroke-linecap: butt; stroke-dashoffset: 0; stroke-linejoin: miter; stroke-miterlimit: 4; fill: rgb(114,114,114); fill-rule: nonzero; opacity: 1;" transform="matrix(1 0 0 1 0 0)  translate(0, 0)" d="" stroke-linecap="round"/>
</g>
<g id="sfNcU2aktR0Upfr45oWw4">
<path style="stroke: rgb(193,193,193); stroke-width: 0; stroke-dasharray: none; stroke-linecap: butt; stroke-dashoffset: 0; stroke-linejoin: miter; stroke-miterlimit: 4; fill: rgb(136,136,136); fill-rule: nonzero; opacity: 1;" transform="matrix(1 0 0 1 0 0)  translate(0, 0)" d="" stroke-linecap="round"/>
</g>
<g id="MSP1u6WSwDimfFEuG5jcH">
<path style="stroke: rgb(50,119,177); stroke-width: 0; stroke-dasharray: none; stroke-linecap: butt; stroke-dashoffset: 0; stroke-linejoin: round; stroke-miterlimit: 4; fill: rgb(50,119,177); fill-rule: nonzero; opacity: 1;" vector-effect="non-scaling-stroke" transform="matrix(1 0 0 1 0 0)  translate(0, 0)" d="" stroke-linecap="round"/>
</g>
<g id="pLUOmNgh3tb7QXcm4hWbM">
<filter id="SVGID_40" y="-28.700499999999998%" height="157.401%" x="-20%" width="140%" color-interpolation-filters="sRGB">
	<feGaussianBlur in="SourceAlpha" stdDeviation="0 0"/>
	<feOffset dx="0" dy="7.611157" result="oBlur"/>
	<feFlood flood-color="rgb(50,119,177)" flood-opacity="1"/>
	<feComposite in2="oBlur" operator="in"/>
	<feMerge>
		<feMergeNode/>
		<feMergeNode in="SourceGraphic"/>
	</feMerge>
</filter>
<g style="filter: url(#SVGID_40);">
		<g id="wgB2s1vH_gLjpqEl1HqHt">
<path style="stroke: rgb(136,136,136); stroke-width: 0; stroke-dasharray: none; stroke-linecap: butt; stroke-dashoffset: 0; stroke-linejoin: miter; stroke-miterlimit: 4; fill: rgb(255,250,245); fill-rule: nonzero; opacity: 1;" d="M265.27,573.68761h11.44l4.24,35.94h0.41l4.3,-35.94h11.44l-10.63,56.26v29.88h-10.56v-29.88zM312.72,641.31761h-6.6l-1.34,18.51h-10.64l9.29,-86.14h11.91l9.29,86.14h-10.57zM312.25,631.29761l-2.76,-36.55h-0.14l-2.76,36.55zM329,573.68761h11.24l11.78,63.73h0.2l-1.28,-18.51v-45.22h10.36v86.14h-11.3l-11.85,-63.8h-0.2l1.28,19.65v44.15h-10.23zM390.31,584.25761h-7.74v-10.57h25.98v10.57h-7.61v75.57h-10.63zM413.79,573.68761h10.57v86.14h-10.57zM431.02,573.68761h10.57v75.64h10.97v10.5h-21.54zM457.67,573.68761h21.2v10.5h-10.63v26.99h10.63v10.49h-10.63v27.66h10.63v10.5h-21.2zM513.46,660.49761c-4.44,0 -7.79,-1.18 -10.06,-3.53c-2.27,-2.35 -3.4,-5.77 -3.4,-10.26v-19.85h10.63v19.58c0,1.17 0.3,2.05 0.91,2.66c0.61,0.6 1.47,0.9 2.59,0.9h0.2c1.13,0 1.99,-0.31 2.6,-0.94c0.6,-0.63 0.9,-1.5 0.9,-2.62v-16.22c0,-0.94 -0.12,-1.73 -0.37,-2.36c-0.25,-0.63 -0.62,-1.19 -1.11,-1.68l-12.65,-12.51c-1.35,-1.31 -2.3,-2.7 -2.86,-4.18c-0.56,-1.48 -0.84,-3.32 -0.84,-5.52v-17.16c0,-4.49 1.13,-7.91 3.4,-10.26c2.27,-2.35 5.62,-3.53 10.06,-3.53h1.48c4.44,0 7.79,1.18 10.06,3.53c2.27,2.35 3.4,5.77 3.4,10.26v19.59h-10.57v-19.32c0,-1.12 -0.3,-1.99 -0.9,-2.62c-0.61,-0.63 -1.47,-0.94 -2.6,-0.94h-0.2c-1.12,0 -1.98,0.3 -2.59,0.91c-0.61,0.6 -0.91,1.48 -0.91,2.65v16.09c0,0.89 0.12,1.67 0.37,2.32c0.25,0.65 0.62,1.22 1.11,1.71l12.59,12.52c1.35,1.3 2.3,2.69 2.86,4.17c0.56,1.48 0.84,3.3 0.84,5.45v17.37c0,4.49 -1.13,7.91 -3.4,10.26c-2.27,2.35 -5.62,3.53 -10.06,3.53zM534.46,573.68761h21.19v10.5h-10.63v26.99h10.63v10.49h-10.63v27.66h10.63v10.5h-21.19zM567.7,584.25761h-7.74v-10.57h25.98v10.57h-7.61v75.57h-10.63zM598.52,584.25761h-7.74v-10.57h25.98v10.57h-7.61v75.57h-10.63zM622.01,573.68761h21.2v10.5h-10.64v26.99h10.64v10.49h-10.64v27.66h10.64v10.5h-21.2zM667.37,659.82761c-0.27,-0.67 -0.49,-1.51 -0.64,-2.52c-0.16,-1.01 -0.24,-2.04 -0.24,-3.07l0.07,-27.92c0,-1.03 -0.26,-1.82 -0.78,-2.36c-0.51,-0.54 -1.24,-0.81 -2.18,-0.81h-4.18v36.68h-10.49v-86.14h15.95c3.95,0 6.95,1.03 9.01,3.1c2.07,2.06 3.1,5.06 3.1,9.01v25.58c0,1.61 -0.25,2.92 -0.74,3.93c-0.49,1.01 -1.35,1.72 -2.56,2.12c1.21,0.41 2.07,1.11 2.56,2.12c0.49,1.01 0.74,2.33 0.74,3.94v28.87c0,3.27 0.34,5.76 1.01,7.47zM663.6,612.71761c0.94,0 1.67,-0.27 2.18,-0.8c0.52,-0.54 0.78,-1.3 0.78,-2.29v-22.34c0,-0.99 -0.28,-1.76 -0.84,-2.29c-0.56,-0.54 -1.34,-0.81 -2.33,-0.81h-3.97v28.53zM712.72,660.49761c-4.44,0 -7.79,-1.18 -10.06,-3.53c-2.27,-2.35 -3.4,-5.77 -3.4,-10.26v-19.85h10.64v19.58c0,1.17 0.3,2.05 0.9,2.66c0.61,0.6 1.47,0.9 2.6,0.9h0.2c1.12,0 1.98,-0.31 2.59,-0.94c0.61,-0.63 0.91,-1.5 0.91,-2.62v-16.22c0,-0.94 -0.12,-1.73 -0.37,-2.36c-0.25,-0.63 -0.62,-1.19 -1.11,-1.68l-12.66,-12.51c-1.34,-1.31 -2.29,-2.7 -2.86,-4.18c-0.56,-1.48 -0.84,-3.32 -0.84,-5.52v-17.16c0,-4.49 1.13,-7.91 3.4,-10.26c2.27,-2.35 5.62,-3.53 10.06,-3.53h1.48c4.45,0 7.8,1.18 10.06,3.53c2.27,2.35 3.4,5.77 3.4,10.26v19.59h-10.56v-19.32c0,-1.12 -0.3,-1.99 -0.91,-2.62c-0.61,-0.63 -1.47,-0.94 -2.59,-0.94h-0.2c-1.13,0 -1.99,0.3 -2.6,0.91c-0.6,0.6 -0.9,1.48 -0.9,2.65v16.09c0,0.89 0.12,1.67 0.37,2.32c0.25,0.65 0.62,1.22 1.11,1.71l12.58,12.52c1.35,1.3 2.3,2.69 2.86,4.17c0.56,1.48 0.84,3.3 0.84,5.45v17.37c0,4.49 -1.13,7.91 -3.4,10.26c-2.26,2.35 -5.61,3.53 -10.06,3.53zM733.72,573.68761h21.2v10.5h-10.64v26.99h10.64v10.49h-10.64v27.66h10.64v10.5h-21.2zM779.08,659.82761c-0.27,-0.67 -0.49,-1.51 -0.64,-2.52c-0.16,-1.01 -0.24,-2.04 -0.24,-3.07l0.07,-27.92c0,-1.03 -0.26,-1.82 -0.78,-2.36c-0.51,-0.54 -1.24,-0.81 -2.18,-0.81h-4.17v36.68h-10.5v-86.14h15.95c3.95,0 6.95,1.03 9.01,3.1c2.07,2.06 3.1,5.06 3.1,9.01v25.58c0,1.61 -0.25,2.92 -0.74,3.93c-0.49,1.01 -1.35,1.72 -2.56,2.12c1.21,0.41 2.07,1.11 2.56,2.12c0.49,1.01 0.74,2.33 0.74,3.94v28.87c0,3.27 0.34,5.76 1.01,7.47zM775.31,612.71761c0.94,0 1.67,-0.27 2.18,-0.8c0.52,-0.54 0.78,-1.3 0.78,-2.29v-22.34c0,-0.99 -0.28,-1.76 -0.84,-2.29c-0.56,-0.54 -1.33,-0.81 -2.32,-0.81h-3.97v28.53zM794.02,573.68761h10.76l3.84,63.39h0.2l3.9,-63.39h10.7l-8.07,86.14h-13.19zM828.61,573.68761h10.56v86.14h-10.56zM859.02,660.49761c-4.44,0 -7.79,-1.18 -10.06,-3.53c-2.27,-2.35 -3.4,-5.77 -3.4,-10.26v-59.9c0,-4.49 1.13,-7.91 3.4,-10.26c2.27,-2.35 5.62,-3.53 10.06,-3.53h1.48c4.45,0 7.8,1.18 10.06,3.53c2.27,2.35 3.4,5.77 3.4,10.26v23.89h-10.63v-23.62c0,-1.17 -0.29,-2.05 -0.87,-2.65c-0.59,-0.61 -1.44,-0.91 -2.56,-0.91h-0.27c-1.12,0 -1.97,0.3 -2.56,0.91c-0.58,0.6 -0.87,1.48 -0.87,2.65v59.36c0,1.12 0.29,1.99 0.87,2.62c0.59,0.63 1.44,0.94 2.56,0.94h0.27c1.12,0 1.97,-0.31 2.56,-0.94c0.58,-0.63 0.87,-1.5 0.87,-2.62v-24.16h10.63v24.43c0,4.49 -1.13,7.91 -3.4,10.26c-2.26,2.35 -5.61,3.53 -10.06,3.53zM880.09,573.68761h21.2v10.5h-10.64v26.99h10.64v10.49h-10.64v27.66h10.64v10.5h-21.2zM919.79,660.49761c-4.44,0 -7.79,-1.18 -10.06,-3.53c-2.27,-2.35 -3.4,-5.77 -3.4,-10.26v-19.85h10.64v19.58c0,1.17 0.3,2.05 0.9,2.66c0.61,0.6 1.47,0.9 2.59,0.9h0.21c1.12,0 1.98,-0.31 2.59,-0.94c0.61,-0.63 0.91,-1.5 0.91,-2.62v-16.22c0,-0.94 -0.12,-1.73 -0.37,-2.36c-0.25,-0.63 -0.62,-1.19 -1.11,-1.68l-12.66,-12.51c-1.35,-1.31 -2.3,-2.7 -2.86,-4.18c-0.56,-1.48 -0.84,-3.32 -0.84,-5.52v-17.16c0,-4.49 1.13,-7.91 3.4,-10.26c2.27,-2.35 5.62,-3.53 10.06,-3.53h1.48c4.44,0 7.79,1.18 10.06,3.53c2.27,2.35 3.4,5.77 3.4,10.26v19.59h-10.56v-19.32c0,-1.12 -0.3,-1.99 -0.91,-2.62c-0.61,-0.63 -1.47,-0.94 -2.59,-0.94h-0.21c-1.12,0 -1.98,0.3 -2.59,0.91c-0.6,0.6 -0.9,1.48 -0.9,2.65v16.09c0,0.89 0.12,1.67 0.37,2.32c0.25,0.65 0.62,1.22 1.11,1.71l12.58,12.52c1.35,1.3 2.3,2.69 2.86,4.17c0.56,1.48 0.84,3.3 0.84,5.45v17.37c0,4.49 -1.13,7.91 -3.4,10.26c-2.27,2.35 -5.62,3.53 -10.06,3.53z" stroke-linecap="round"/>
</g>
</g>
</g>
<g id="eFETArUAaf2mKdZYNy5A4">
<path style="stroke: rgb(193,193,193); stroke-width: 0; stroke-dasharray: none; stroke-linecap: butt; stroke-dashoffset: 0; stroke-linejoin: miter; stroke-miterlimit: 4; fill: rgb(50,119,177); fill-rule: nonzero; opacity: 1;" transform="matrix(1 0 0 1 0 0)  translate(0, 0)" d="" stroke-linecap="round"/>
</g>
<g id="d5vE49T9SPYInZZJThR_j">
<path style="stroke: rgb(193,193,193); stroke-width: 0; stroke-dasharray: none; stroke-linecap: butt; stroke-dashoffset: 0; stroke-linejoin: miter; stroke-miterlimit: 4; fill: rgb(136,136,136); fill-rule: nonzero; opacity: 1;" transform="matrix(1 0 0 1 0 0)  translate(0, 0)" d="" stroke-linecap="round"/>
</g>
<g id="urCzCvaZZRxaXdNPS2pkj">
<path style="stroke: rgb(114,114,114); stroke-width: 0; stroke-dasharray: none; stroke-linecap: butt; stroke-dashoffset: 0; stroke-linejoin: round; stroke-miterlimit: 4; fill: rgb(114,114,114); fill-rule: nonzero; opacity: 1;" vector-effect="non-scaling-stroke" transform="matrix(1 0 0 1 0 0)  translate(0, 0)" d="" stroke-linecap="round"/>
</g>
<g id="I87JRKd4OAw_KSiCBDGQp">
<g>
		<g id="stJXXEb22ZD4Z2R6HE8Qr">
<path style="stroke: rgb(136,136,136); stroke-width: 0; stroke-dasharray: none; stroke-linecap: butt; stroke-dashoffset: 0; stroke-linejoin: miter; stroke-miterlimit: 4; fill: rgb(255,250,245); fill-rule: nonzero; opacity: 1;" d="M516.80702,753.98774h-0.45l-0.47,-0.01l-2.31,-0.03l-0.45,-0.02l-2.31,-0.01c-1.4,0 -2.24,-0.05 -2.51,-0.16c-0.42,-0.16 -0.63,-0.48 -0.63,-0.97c0,-0.49 0.35,-1.16 1.04,-2.01c0.02,-0.03 0.88,-0.92 2.58,-2.65c1.7,-1.73 2.8,-2.97 3.3,-3.73c0.85,-1.27 1.27,-2.43 1.27,-3.48c0,-1.05 -0.27,-1.87 -0.8,-2.46c-0.54,-0.6 -1.2,-0.9 -1.97,-0.9c-1.35,0 -2.37,0.68 -3.06,2.03c-0.49,0.95 -0.94,1.43 -1.34,1.43c-0.65,0 -0.98,-0.37 -0.98,-1.1c0,-0.73 0.15,-1.32 0.46,-1.76c0.31,-0.45 0.73,-0.85 1.28,-1.2c1.23,-0.81 2.68,-1.22 4.36,-1.22c1.68,0 2.99,0.45 3.94,1.34c0.94,0.9 1.41,2.1 1.41,3.61c0,1.17 -0.4,2.29 -1.2,3.36c-0.8,1.07 -2.14,2.43 -4.01,4.08c-1.87,1.65 -2.8,2.66 -2.8,3.03c0,0.28 0.78,0.42 2.35,0.42c1.57,0 2.65,-0.09 3.24,-0.28c0.59,-0.19 1.12,-0.47 1.59,-0.84c0.47,-0.37 0.85,-0.55 1.12,-0.55c0.27,0 0.41,0.33 0.41,0.99c0,1.31 -0.25,2.2 -0.74,2.65c-0.32,0.29 -1.09,0.44 -2.32,0.44zM528.85702,744.20774v1.11c0,2.07 0.36,3.86 1.07,5.36c0.29,0.58 0.66,1.07 1.12,1.46c0.47,0.39 0.95,0.59 1.45,0.59h0.35c0.51,0 0.98,-0.17 1.42,-0.52c0.43,-0.34 0.78,-0.78 1.03,-1.31c0.68,-1.43 1.02,-2.98 1.02,-4.66l0.03,-0.42v-1.32c0,-2.14 -0.37,-3.99 -1.12,-5.55c-0.27,-0.55 -0.63,-1 -1.08,-1.34c-0.46,-0.34 -0.97,-0.51 -1.54,-0.51c-1.13,0 -2.04,0.66 -2.73,1.97c-0.68,1.32 -1.02,3.03 -1.02,5.14zM532.85702,754.26774h-0.55c-0.86,0 -1.69,-0.21 -2.5,-0.62c-1.69,-0.87 -2.86,-2.38 -3.53,-4.53c-0.4,-1.27 -0.6,-2.6 -0.6,-3.99v-0.3c0,-2.79 0.73,-5.1 2.19,-6.93c1.24,-1.55 2.87,-2.33 4.88,-2.33c2.01,0 3.66,0.74 4.94,2.23c0.69,0.81 1.23,1.83 1.6,3.04c0.37,1.21 0.55,2.41 0.55,3.59v0.87c0,1.15 -0.18,2.31 -0.55,3.48c-0.71,2.29 -1.93,3.88 -3.66,4.79c-0.89,0.47 -1.82,0.7 -2.77,0.7z" stroke-linecap="round"/>
</g>
</g>
</g>
<g id="kRqO_LEYc_WVA74NI1m2D">
<path style="stroke: rgb(193,193,193); stroke-width: 0; stroke-dasharray: none; stroke-linecap: butt; stroke-dashoffset: 0; stroke-linejoin: miter; stroke-miterlimit: 4; fill: rgb(114,114,114); fill-rule: nonzero; opacity: 1;" transform="matrix(1 0 0 1 0 0)  translate(0, 0)" d="" stroke-linecap="round"/>
</g>
<g id="nUt8VeAHykR11vEEj0XPr">
<path style="stroke: rgb(193,193,193); stroke-width: 0; stroke-dasharray: none; stroke-linecap: butt; stroke-dashoffset: 0; stroke-linejoin: miter; stroke-miterlimit: 4; fill: rgb(136,136,136); fill-rule: nonzero; opacity: 1;" transform="matrix(1 0 0 1 0 0)  translate(0, 0)" d="" stroke-linecap="round"/>
</g>
<g id="3SSSDFmx0EEBWUzGMahiK">
<path style="stroke: rgb(114,114,114); stroke-width: 0; stroke-dasharray: none; stroke-linecap: butt; stroke-dashoffset: 0; stroke-linejoin: round; stroke-miterlimit: 4; fill: rgb(114,114,114); fill-rule: nonzero; opacity: 1;" vector-effect="non-scaling-stroke" transform="matrix(1 0 0 1 0 0)  translate(0, 0)" d="" stroke-linecap="round"/>
</g>
<g id="AxpnRvN8gYO_rKn4GzxJW">
<g>
		<g id="HAZY_Txd089MPIV-yH0g2">
<path style="stroke: rgb(136,136,136); stroke-width: 0; stroke-dasharray: none; stroke-linecap: butt; stroke-dashoffset: 0; stroke-linejoin: miter; stroke-miterlimit: 4; fill: rgb(255,250,245); fill-rule: nonzero; opacity: 1;" d="M662.24277,744.20774v1.11c0,2.07 0.36,3.86 1.07,5.36c0.29,0.58 0.66,1.07 1.12,1.46c0.47,0.39 0.95,0.59 1.45,0.59h0.35c0.51,0 0.99,-0.17 1.42,-0.52c0.43,-0.34 0.78,-0.78 1.03,-1.31c0.68,-1.43 1.02,-2.98 1.02,-4.66l0.03,-0.42v-1.32c0,-2.14 -0.37,-3.99 -1.12,-5.55c-0.27,-0.55 -0.63,-1 -1.08,-1.34c-0.46,-0.34 -0.97,-0.51 -1.54,-0.51c-1.13,0 -2.04,0.66 -2.72,1.97c-0.69,1.32 -1.03,3.03 -1.03,5.14zM666.25277,754.26774h-0.56c-0.85,0 -1.69,-0.21 -2.5,-0.62c-1.68,-0.87 -2.86,-2.38 -3.53,-4.53c-0.39,-1.27 -0.59,-2.6 -0.59,-3.99v-0.3c0,-2.79 0.73,-5.1 2.18,-6.93c1.25,-1.55 2.87,-2.33 4.88,-2.33c2.01,0 3.66,0.74 4.94,2.23c0.69,0.81 1.23,1.83 1.6,3.04c0.37,1.21 0.56,2.41 0.56,3.59v0.87c0,1.15 -0.19,2.31 -0.56,3.48c-0.71,2.29 -1.93,3.88 -3.66,4.79c-0.89,0.47 -1.81,0.7 -2.76,0.7zM682.16277,744.20774v1.11c0,2.07 0.36,3.86 1.08,5.36c0.28,0.58 0.65,1.07 1.11,1.46c0.47,0.39 0.95,0.59 1.45,0.59h0.35c0.51,0 0.99,-0.17 1.42,-0.52c0.43,-0.34 0.78,-0.78 1.03,-1.31c0.68,-1.43 1.02,-2.98 1.02,-4.66l0.03,-0.42v-1.32c0,-2.14 -0.37,-3.99 -1.12,-5.55c-0.27,-0.55 -0.63,-1 -1.08,-1.34c-0.46,-0.34 -0.97,-0.51 -1.54,-0.51c-1.13,0 -2.04,0.66 -2.72,1.97c-0.69,1.32 -1.03,3.03 -1.03,5.14zM686.17277,754.26774h-0.56c-0.85,0 -1.69,-0.21 -2.5,-0.62c-1.68,-0.87 -2.86,-2.38 -3.53,-4.53c-0.39,-1.27 -0.59,-2.6 -0.59,-3.99v-0.3c0,-2.79 0.73,-5.1 2.18,-6.93c1.25,-1.55 2.87,-2.33 4.88,-2.33c2.01,0 3.66,0.74 4.95,2.23c0.69,0.81 1.22,1.83 1.59,3.04c0.37,1.21 0.56,2.41 0.56,3.59v0.87c0,1.15 -0.18,2.31 -0.55,3.48c-0.72,2.29 -1.94,3.88 -3.67,4.79c-0.89,0.47 -1.81,0.7 -2.76,0.7z" stroke-linecap="round"/>
</g>
</g>
</g>
<g id="vvNeDdQ9DH7g5RlwfTZhK">
<path style="stroke: rgb(193,193,193); stroke-width: 0; stroke-dasharray: none; stroke-linecap: butt; stroke-dashoffset: 0; stroke-linejoin: miter; stroke-miterlimit: 4; fill: rgb(114,114,114); fill-rule: nonzero; opacity: 1;" transform="matrix(1 0 0 1 0 0)  translate(0, 0)" d="" stroke-linecap="round"/>
</g>
<g id="MZVIdqKLgPuVDOl0-PPsE">
<path style="stroke: rgb(193,193,193); stroke-width: 0; stroke-dasharray: none; stroke-linecap: butt; stroke-dashoffset: 0; stroke-linejoin: miter; stroke-miterlimit: 4; fill: rgb(136,136,136); fill-rule: nonzero; opacity: 1;" transform="matrix(1 0 0 1 0 0)  translate(0, 0)" d="" stroke-linecap="round"/>
</g>
<g id="Q0gDv0J3kEcB_LHXdzfQW">
<g style="">
		<g id="Layer_1-2">
<path style="stroke: rgb(193,193,193); stroke-width: 0; stroke-dasharray: none; stroke-linecap: butt; stroke-dashoffset: 0; stroke-linejoin: miter; stroke-miterlimit: 4; fill: rgb(255,250,245); fill-rule: nonzero; opacity: 1;" transform="matrix(0.223916 0 0 0.223916 599.856942 744.567724) matrix(1 0 0 1 0 0)  translate(-121.625, -121.625)" d="M 134.26 121.63 L 157.62 97.93 C 167.34 87.76 177.21 77.74 186.77 67.41 C 206.07 46.91 225.07 26.12 243.25 4.51 L 238.73 0.00 C 217.13 18.18 196.34 37.18 175.84 56.47 C 165.51 66.00 155.49 75.91 145.31 85.63 L 121.62 109.00 L 97.93 85.63 C 87.76 75.91 77.74 66.00 67.41 56.47 C 46.91 37.18 26.12 18.18 4.51 0.00 L 0.00 4.51 C 18.18 26.12 37.18 46.91 56.47 67.41 C 66.00 77.74 75.91 87.76 85.63 97.93 L 109.00 121.63 C 91.30 139.51 73.70 157.48 56.50 175.85 C 37.20 196.35 18.19 217.14 0.00 238.73 L 4.51 243.25 C 26.11 225.06 46.90 206.05 67.39 186.76 C 85.77 169.56 103.74 151.95 121.62 134.26 C 139.51 151.95 157.48 169.56 175.85 186.76 C 196.35 206.05 217.14 225.06 238.73 243.25 L 243.25 238.73 C 225.06 217.14 206.05 196.35 186.76 175.85 C 169.56 157.48 152.00 139.51 134.26 121.63 Z" stroke-linecap="round"/>
</g>
</g>
</g>
<g id="2Jnb2ECK4KkAP0O2drPDn">
<g style="">
		<g id="Icon_open-star">
<path style="stroke: rgb(193,193,193); stroke-width: 0; stroke-dasharray: none; stroke-linecap: butt; stroke-dashoffset: 0; stroke-linejoin: miter; stroke-miterlimit: 4; fill: rgb(255,250,245); fill-rule: nonzero; opacity: 1;" d="M467.34224,434.5635l-6.30164,18.90906h-18.91114l15.75461,12.60431l-6.30164,18.90906l15.75461,-12.60327l15.75565,12.60327l-6.30268,-18.90906l15.75565,-12.60431h-18.89972z" stroke-linecap="round"/>
</g>
</g>
</g>
<g id="oDon3-3ZYqaeusvf9b0KX">
<g style="">
		<g id="Icon_open-star">
<path style="stroke: rgb(193,193,193); stroke-width: 0; stroke-dasharray: none; stroke-linecap: butt; stroke-dashoffset: 0; stroke-linejoin: miter; stroke-miterlimit: 4; fill: rgb(255,250,245); fill-rule: nonzero; opacity: 1;" d="M732.38112,434.5635l-6.30164,18.90906h-18.91114l15.75461,12.60431l-6.30164,18.90906l15.75461,-12.60327l15.75565,12.60327l-6.30268,-18.90906l15.75565,-12.60431h-18.89972z" stroke-linecap="round"/>
</g>
</g>
</g>
<g id="fCIGuwAHIeQR8tTkZ-MdU">
<g style="">
		<g id="layer1">
<path style="stroke: rgb(193,193,193); stroke-width: 0; stroke-dasharray: none; stroke-linecap: butt; stroke-dashoffset: 0; stroke-linejoin: miter; stroke-miterlimit: 4; fill: rgb(255,250,245); fill-rule: nonzero; opacity: 1;" transform="matrix(0.418555 0 0 0.418555 600.055213 453.845358) matrix(1 0 0 1 0 0)  translate(-170.290597, -175.068732)" d="M 82.52 0.05 C 77.12 1.28 72.38 5.84 70.25 10.84 C 68.72 15.75 72.07 20.36 76.04 22.84 C 80.00 27.00 77.65 33.52 73.30 36.43 C 68.17 42.24 60.00 47.00 52.35 43.22 C 48.53 41.84 46.06 38.29 42.70 36.35 C 36.81 38.76 34.33 45.49 29.25 49.10 C 18.53 59.00 11.89 72.43 6.48 85.73 C -2.85 109.91 -3.27 139.78 12.99 161.13 C 14.28 164.35 18.99 164.76 17.55 160.43 C 15.95 142.80 17.14 123.37 27.05 108.12 C 33.36 97.91 46.38 94.27 57.65 96.80 C 67.37 98.52 77.13 102.53 83.39 110.64 C 116.61 144.26 150.39 177.53 183.65 211.11 C 181.88 214.74 181.92 218.99 184.71 222.11 C 190.38 228.06 196.62 233.42 202.23 239.47 C 239.00 276.00 275.09 313.26 312.43 349.11 C 318.38 352.36 324.43 347.32 327.58 342.61 C 332.29 337.55 340.22 333.24 340.58 325.61 C 339.16 317.76 330.80 314.40 326.38 308.43 C 287.67 270.00 249.68 230.79 210.38 193.00 C 207.52 191.38 204.03 192.22 201.26 193.58 Q 148.27 141.36 96.00 88.35 C 90.47 83.69 85.54 77.08 87.15 69.43 C 88.34 62.76 93.64 57.57 98.79 53.62 C 102.93 50.54 107.71 53.77 110.23 57.30 C 111.78 59.34 114.12 60.62 116.67 60.83 C 119.23 61.03 121.74 60.14 123.60 58.38 C 128.10 54.84 133.36 48.59 129.33 42.78 C 124.76 36.84 118.44 32.51 113.57 26.78 C 104.42 17.91 96.00 8.12 86.00 0.44 C 84.89 0.04 83.69 -0.09 82.52 0.05 Z" stroke-linecap="round"/>
</g>
</g>
</g>

  </svg>